<mxfile host="65bd71144e">
    <diagram id="l8hXMBHkgcEJcSW0mbfh" name="Page-1">
        <mxGraphModel dx="868" dy="555" grid="1" gridSize="10" guides="1" tooltips="1" connect="1" arrows="1" fold="1" page="1" pageScale="1" pageWidth="1169" pageHeight="827" math="1" shadow="0">
            <root>
                <mxCell id="0"/>
                <mxCell id="1" parent="0"/>
                <mxCell id="gtZmH0xc7X_VaX0TCZXS-25" value="" style="rounded=0;whiteSpace=wrap;html=1;" parent="1" vertex="1">
                    <mxGeometry x="140" y="14.5" width="840" height="710" as="geometry"/>
                </mxCell>
                <mxCell id="gtZmH0xc7X_VaX0TCZXS-2" value="" style="sketch=0;points=[[0,0,0],[0.25,0,0],[0.5,0,0],[0.75,0,0],[1,0,0],[0,1,0],[0.25,1,0],[0.5,1,0],[0.75,1,0],[1,1,0],[0,0.25,0],[0,0.5,0],[0,0.75,0],[1,0.25,0],[1,0.5,0],[1,0.75,0]];outlineConnect=0;fontColor=#232F3E;fillColor=#ED7100;strokeColor=#ffffff;dashed=0;verticalLabelPosition=bottom;verticalAlign=top;align=center;html=1;fontSize=12;fontStyle=0;aspect=fixed;shape=mxgraph.aws4.resourceIcon;resIcon=mxgraph.aws4.lightsail;" parent="1" vertex="1">
                    <mxGeometry x="160" y="30" width="78" height="78" as="geometry"/>
                </mxCell>
                <mxCell id="gtZmH0xc7X_VaX0TCZXS-14" value="" style="group" parent="1" vertex="1" connectable="0">
                    <mxGeometry x="150" y="341" width="180" height="159" as="geometry"/>
                </mxCell>
                <mxCell id="gtZmH0xc7X_VaX0TCZXS-8" value="" style="rounded=1;whiteSpace=wrap;html=1;" parent="gtZmH0xc7X_VaX0TCZXS-14" vertex="1">
                    <mxGeometry width="180" height="159" as="geometry"/>
                </mxCell>
                <mxCell id="gtZmH0xc7X_VaX0TCZXS-1" value="" style="image;sketch=0;aspect=fixed;html=1;points=[];align=center;fontSize=12;image=img/lib/mscae/Docker.svg;" parent="gtZmH0xc7X_VaX0TCZXS-14" vertex="1">
                    <mxGeometry x="10" y="10" width="50" height="41" as="geometry"/>
                </mxCell>
                <mxCell id="3" value="" style="shape=image;imageAspect=0;aspect=fixed;verticalLabelPosition=bottom;verticalAlign=top;image=data:image/png,iVBORw0KGgoAAAANSUhEUgAACIUAAAT8CAMAAAAgpVJRAAAB+1BMVEUAAAC7QEC9QEK+QEO9QEO9QEO+QES9QEO8QEO9QEK9QEOvQEC9QEO/QEC8QES+QEO/QEO9QEK3QEC7QEK6QEW/QES9QES/QEKAODj/Skr/S0v/S0v/S0v/QEBwMEB+Njp9NTt9NTt8NTt+Nzl4MDj/Skr/S0v/S0v/SEh9NDt9NTt8Mz3/Skp+Njv/S0t9NTt6NTp9NTp9NTp8NDj/TEx6Mjr/Skr/SEh8NDp9NTt8Mzn/S0t9Njv/S0v/UFD/Skp8Nj3/TEz/Skp+Njr/SUl/NTt+NTl9NDp8NDz/RUV9Njp6NTX/TEz/SUnfRUe5P0P3SkrWREaZOT7SREW5P0KFNjzvSEnFQUStPUHmR0jeRUfaREbNQkWJNzzzSUmxPkKdOj//SkrBQUSNOD21P0KBNjyhOz/7SkqlPECROT6pPEDiRkd8NTp7NDnJQUTqR0iHODq9QEK/QEC9QEL/TEz/S0u8QEO8QEP/TEzeRUj/UFAgIDAjIzAnJzAlJzAlJjAlJzAmJjAlJTAkJDAmJzAmJzAmJzAmJzAlJTAmJjAmJjAgKDAgIDAlJjAoKDAkKDAmJjAhITEmKDAnJzAlKDAmJjAnJzAlJTAjJjAmJzAmJzAlKjAmJjAlJzAnJzAnJzAkJzAmJjAmKDAmKDAnJzAnJzAnJzAlJTAmKDAmf25zAAAAqXRSTlMAQJ/f7//Pn1Bg3xCvEM+/b3AggDB/j48gYL/v/xAQf7//z28gMM+fIO/fUH9f3+8wYN9AUGCAQICfUI/fcBCQUECvgKCPb69AMLAwr3C/z///////////////////////3/////////////+QcP//YN8g75CgkKCAoCAQUHCPn7+AMEDf/++vYH+fICDPIEBfH59vYFCvkFCwzzCgkN+QcM+AoL+PwI9/4Yz3EwAAP0dJREFUeAHs2UEyA1EYBsA/zJ/IRISA+99UvYUqZD3vW+i+RhcAAAAAAAAAAAAAAAAAAAAAAAAAAAAAAAAAAAAAAAAAAAAAAAAAAAAAAAAAAAAAAAAAAAAAAAAAAAAAAAAAAAAAAAAAAAAAAAAAAAAAAAAAAAAAAAAAAAAAAAAAAAAAAAAAAAAAAAAAAAAAAAAAAAAAAAAAAAAAAAAAAAAAAAAAAAAAAAAAAAAAAAAAAAAAAAAAAAAAAAAAAAAAAAAAAAAAAAAAAAAAAAAAAAAAAAAAAAAAAAAAAAAAAAAAAAAAAAAAAAAAAAAAAAAAAAAAAAAAAAAAAAAAAAAAAAAAAAAAAAAAAAAAAAAAAAAAAAAAAAAAAAAAAAAAAAAAAAAAAAAAAAAA/xoAAAAAAAAAAAAAAAAAAAAAAAAAAAAAAAAAAAAAAAAAAAAAAAAAAAAAAAAAAAAAAAAAAAAAAAAAAAAAAAAAAAAAAAAAAAAAAAAAAAAAAAAAAAAAAAAAAAAAAAAAAAAAAAAAAAAAAAAAAAAAAAAAAAAAAAAAAAAAAAAAAAAAAAAAAAAAAAAAAAAAAAAAAAAAAAAAAAAAAAAAAAAAAAAAAAAAAAAAAAAAAAAAAAAAAAAAAAAAAAAAAAAAAAAAAAAAAAAAAAAAAAAAAAAAAAAAAAAAAAAAAAAAAAAAAAAAAAAAAAAAAAAAAAAAAAAAAAAAAAAAAAAAAAAAAMDu7n7p3h8eCgBgnuPS39ZjAQDMcXrsnw7nmgAA4PTUv+3PtT0AgEP/danNAQA8962X2hgAwHXpW8u1tgUAcOkhcTIAgI/JnAwA4GOCJwMA+Jj8yQAAPmZ4LQCACR9z660AAGZ/zLCvTQAAvPcw+WQAAK49zD4ZAIC1h8TJAAA+JnIyAICPiZ4MAOBj8icDAPiY/MkAAD5m2BUAwOyPGdZzAQDM/pjhowAAJnxM4GQAAB8TOBkAwMcETgYA8DGBkwEAfEzgZAAAHxM4GQDAx0RPBgDwMfmTAQB8jJMJAAAf42QCAMDHOJkAAPAxTiYAAHyMkwkAAB/jZAIAwMc4mQAA8DFOBgCY4LT24GQAgMk+e3AyAMBkux6cTB4A+BgnkwcAPsbJ5AGAj3EyeQDgY5xMHgD4GCeTAwA+xsnAF3t32R3HkUYBuHSOJ5xoDYGRKoraK5jsattrWMsohxnMYWb4/1+XK5yM1PLo7al+nl9xz7m33mIPAI7csT5GJ/NYAoA9GS8t5+Wl8eNpmO4e3Qk6mZUnVpumOf7ntbRLALC+kf9vc5IG6N7RnXbPMDPIk83//OWvCQB2ZX05/2hroo/Zv0MPDjSDFH9LALALkzb/VLulj9m/BwaaQYoTf08AMN1m/oV2rI/ZE53MyVPNL6wmAJhqkotOOUQfo5M5far5tZUEANOcybl7DtHH6GROrza/5R8JAKY5m3/b0rY+Riez9wxSnEsdASCFTH+2q4/RyayVDCKFdAHAOOcuOUQfo5NZO9/8vgupAwCsU6fnEH2MTqY8zv0djyUAmGop/6GLE31MR4eODC+DFJcSAEx3Of+xdksf09Hi8DJIcTJNBwA7y3mKdqyP6eZwqtLJkkEUMgDs05VcTM8h+hidzFOnmqnOJwDYjafzLrRjfYxOphwIKbyQmS0A+9Si3dbH7N3hijOIbersAdinFs9M9DGRnUz/M0jxbOoOAPvUfZ4P0ccUiwM4Umab2h0Az+Vd25wMso/Ryaw83+zaauoAAPvUqBwS38foZLofCOl+LAQANvIetFsTfcweLNafQWxTuwPgbN6TdjygPkYn88LUDNL9WAgA7OQ9ascD6WN0MidPNYVtKgAhJ0M65BB9TLFY4+Nc29QAAPapRbutj9mlw9VnENvU7gBYzh0sTfQxAZ1MPzNIcWIldQeAfWrdz3YXR7ugk1l7sSlsUwMA2KfWmEP+NIpwuJIjZdO9lPYIAJbyMHLIkUOjQifT/UCIYyGxAOxTi+WtiT5mmsWKM4htagAA+9SiHetjpjlccwZxLCQAgH1q0Y71MRGdTPyRMtvU/QNgPefYHBLfx+hkTpcMYpsaD8A+df85RB9THK7zQIht6v4BcDnv29LL+piwTiY+g9imAtDVznL+UZXPdu8b/R6dzNpqU9imAnDwruRcdQ55ePQ7dDJr55s74ZUEdAZOhtScQ46MCp1Mp8e5011IQBSwTy22JvqY37RYcwaxTQ0FYJ9atFv6mN90uN4M4lhINAD71KId62N+y7HUKydLBrFNjQdgnzqbHKKPKe7q/5GyrlYTEALsU6fkEH1McbTHB0IcC6kAgH1qsbStjymKY3VmENvUOAC+tJvybFcfU9xVZQaxTY0EYJ86JYfoY4qj/T9S1sWraV8A4LU8A5uTHvUxOpmV55sZOJ4AoFf71OLiRB/zo7v6fyDENhWAAMt5JtotfcyPjlaXQRwLAaCP+9SiHYf3MTqZF0oGsU0FoId28sy0Y33M/933YApw8lQzMy+lfQOApTw77Vgf8z+PRD/OdSxkMADsU4t2Wx/zXwthGWRw21QA7FOLZyYD72NKJxOTQQa5TQXAPrXYnMT3MYPqZNZebIqBbFMBsE+NzyFHRv21EHCkrOfbVABYyvE5JLiPCehk4g+ExG9TAeBMPgDt1mSofUzxyNxnkOLZFAAAX9p1146H2scUCwEZpN/bVAC4kg9GO66/jwnsZMqRsplbTfEAcDKkVzmk9DHD7GROH2+KwrEQAOxTD+aM2cKo/xYCDoT0epsKAJfzAVqapFm4v/Qx/e5kIjKIYyEA2KfO9Nnuo6NiaJ3M2mpT2KYCYJ968Dmk9DGD62TWzjeFbSoA9qkBOaT0MfV3Ml0f59qmAmCfWixvTQbVxxSPzGkGKU6sJACY231q0b4+qD6mWIjLILapANinFu24lj4moJM5+WQT4dUEAHfYazlEO66hjwnoZE6fan7GsRAA7FMjcsi9o/myEHAgpMfbVADYyFGWttO+HCl9TAWdTEAGCT8WAgBnczfxz3bvHs2bRwIySH+3qQCwkyNtTgbRxxQLsUfKunspAcAMLOX4HNL/Pia2k1l5oilsUwGwT71ztib19zHFIwEHQvq7TQWA5Rys3aq/jykWepFBbFMBsE8t2nH/+5igTuaFJ5twryQAqHCfWrTj/vcxAZ3MyVNND1xIAFDlPrVox3X3McU9vXmca5sKgH1qsbFdcx9THHqwPxnEsRAA7FOLzUnFfUzxQHwGsU0FwD61Qw4pfUzdnczai01vrCYAmJ313CObk/g+JriTWXm+mcKxEADsUyNyyN2jefdAwIGQnm5TAeBy7pV26/E6+5jinoAM0s9tKgDsLOd+accBfUxAJxOdQeK3qQBwJfdNO66xjyke6HCkLMbxFA8AJ0Pic0jpYyrtZE4fbwrbVADsU2O129X1McWhIx0OhERYSQAwrH1qsTSprY8pFnuaQWxTAbBPLTYnlfUxxeH0o7XVpqdeSuEAsE+NzyGlj6muk1k730RyLAQA+9TpOeTuUU0WAx7n9nKbCgAbub/arUnpYypyeGoGcSwEAF/axWvHpY+pqZPpcwaxTQXAPrVo3xjV5s2SQWxTAXAypN+uXhtV5npT2KYCYJ/ab1dvjKpy81bTZ8+mAwIAy7n/br81qsnbTe+3qQBgn1q885ZO5mCspoMCADs5yyE6GcdCALBPnZJDdDK2qQDYp0Z49y2djGMhANinhrj6nk7GNhUA+9Q5PB+ik7FNBcA+VQ65bpsKAGWfKofoZE6kgwUAZ/K8uf2+TsY2FQBf2tXzbFcn82o6YABwJecsh+hkjicAcDJkdjlEJ2ObCoB9qjNm1x0LAYDLeU5dfVcnY5sKgH3qnD/b1cm8lADAPnWmOUQn4yM7AOxT5ZCbH9imAmCfmufah++P5tNHtqkxALBP9Wz346YnXkkAMKx9qhzSl07mQgoCAK/lEHLIR7apMQCwT5VDPh76sRAA+CTX4Oq7n+pk5mybCgBnc5T4Z7s6mdUEAHF2chA55GPHQgBwMkQOifGZbSoA9qnVuPr+aI58/oVtKgDDtpxrcvut0fz40jYVAPvUGJ7tfmabCoB9qhwywE7mZAIA+9SAHKKTObGSAMA+dQZnzN7SydimAuBLu14+29XJvJQAwD41IIfoZC4lAIi3nuPIIZ/ZpgJgn1qjq+/rZPp8LAQALuc4zph9aZsKgH1qDM92P7NNBWDAruRcfw7RydimAuBkiBwS3sk8mwDAPvVgfPXuWzoZ21QA7FNDXH1PJ+MjOwDsU50Pie1kHAsBwD5VDik+s00FwD5VDhlAJ3M+9QgAbOSBuP2+TuaxBAC+tPNst/jMNhUA+1Q5JKyTsU0FwMkQOSTAl7apANinDkP/zph9ZpsKwFAt52G5+u5AO5lX088AgH2qZ7tfNwfheOobANjJweSQb2xTAbBPlUNC3PzCsRAA7FNDOGP2rW0qAPapnu3W2sm8lADAPlUOCehkLqU+AoBJjiaHfGubCoB96uB891ZvOxnb1PoBcCYP2dV3P62+k3kl/Q4A8KWdZ7tvNzN0IfUUAFzJ4eSQ67apADgZIoeEuHmrmZXvU28BwFLm6vvxnYxtKgDDcznnzO236uxkVhMA2Kc6HxLRyZxMAGCfKofss5OxTQXgX+zdxbIkNxBAUW1Ma281jBszMzN1NFUNMzw009eb2fOooVJdOucrMiKvUvrUpTCHDH1kB4A+te4zZk3cTiakTQUAfapnu602FQB9qjkkxlCbCkB9Ps6LZw6J38k8djgBgD51xQxG8TsZbSoAVVjCSsYZs/idzPsJAIr3bKaEZ7vjiWMhANTm1UwRc0irTQXAyRBi5pChYyEA6FP53fkmZCejTQVAn8rgQuxORpsKgD7V+ZD4nYw2FQB9qjmk/J3MVgIAfao55EBabSoAlXk6s6vpxZXayXyYAMCXdp7tBuxkHAsBQJ9qDplBq00FoC6ncinMIUPHQgDQp4Zwxmx8SZsKQFVeyezH4Px9S3fl2HyOJgDQp3q2O5Or2lQAqvJaLoY55JI2FQBf2oUwh1zRpgKgT2UHly8Wu5P5KAGAPtWz3YCdzPE0OwDQp5pDrmhTAdCnEjOHXHUsBAB9KjFzyI2K2lQAOJ1n4IzZ9fuW4uatY7N4PwGAL+08253P7XqOhQDAq7kk5pAb2tS9AeBkiDkkZiejTQVAn8rgYuBOZvXbVACY42QI0yZ+J/NiAgB9qme7ATsZbSoA+lRzSMxO5q0EAPpUc0jXOxltKgD6VGfMmqidzNEEAPpUz3YX5bZjIQDoU4mZQ25U0qYCwKlcFnPIzVsHORYCAPpUBqNOdzKr36YCwNOZBZlud7iTWf02FQBeLa1P9Wz35q062lQAeC0TN4fMvpN57HACgAVzMsQcckObCoA+lRmcb7rYybyfAGDlvZIXzTnV+XcyjoUAoE8N4XzIDW0qAPrUEOaQm7ccCwFAnxrCHHJbmwqAPpWZTS/Ot5PRpgKgTw3g2e7NW9pUAPSpIcwhd7WpANTg41wec8jafG0qAOhT2ZhtDhnvuJP5MPUGAFjJlHjGbP3YDl5MvQEAz+YCeba71v82FQBezQUyh4xvORYCgJMhIcwh64toUwFAn8rg4iJ2MkcTAOhTOajPm9l3Mo6FAKBP7ZDzIa02FQB9agxzyFCbCoA+NYQ5ZDw59m8fpZ4BgKdzh5wxa2bdyRxPAOBLu254tjvUpgKgTw1gDvnvTuZwAgAnQzpiDmm1qQDoU0M4Y/bPncz7qYcA4JVM56bNPncyjoUAoE8N4Nlu2/M2FQBey4Uyhwx9ZAeAPjWEOWQ80aYCoE9lGe7sdcas1aYCoE+N4dnuUJsKgD41gDnk953MW6m3AODtXCpzSKtNBUCfGsMcMjyaegwATmdiTbd33Ml8kQDAl3YBPNv9MgGAPjWCOeSrBAAe6wYwhzycAMDlMjpwvrGPAaA2p+xkyjA4f98/fG0fA4CdTAjPdh9KAFCBb3JpzCGiEAAq8W0uiznkuwQAxhC6Nr143/cJAKrxQy4HPyYAkKgS4JUEAFU5+2guAY/+zK6d3MgNA2EYVRqkZo4SJwCBN0HgvZNgDl4ZvbuMPnnf3ct7UXz4q9oEAI9m1yFX4HieHg8AvHhS/d+yIQSAR/ViD/mf1jQBwANrr/9LiDAXOwgAtD3PT/xL8yk9TwEAWLZayin3J/6evp5KKTVtYwIAPjPatteSV+vInzL3XI49tX+aHgCgR7SHywsA/IbRWqrHSZB8zxw3l5rSoj0A4O8ESS05d0VyEeVx1LRJDwD4Z8bS0h4bycM9tfaeS6m78gCAK0mSLe21xEzS7/HUEt1RU2pjTADAdUdJS6l+rJK195uLjp4v1bG1cdN7BwAwoktiLalHlEnuV5Imvfc1iqPUukdzLA+ydQCANhntLKW01+iTsxx6mP9IZYQ1n5Wzo0ZsRG1EbnyrNwAAxsXSfsS4cEYBAAAAAAAAAAAAAAAAAAAAAAAAAAAAAAAAAAAAAAAAAAAAAAAAAAAAAAAAAAAAAAAAAAAAAAAAAAAAAAAAAAAAAAAAAAAAAAAAAAAAAAAAAAAAAAAAAAAAAAAAAAAAAAAAAAAAAAAAAAAAAAAAAAAAAAAAAAAAAAAAAAAAAAAAAAAAAAAAAAAAAAAAAAAAAAAAAAAAAAAAAAAAAAAAAAAAAAAAAAAAAAAAAAAAAAAAAAAAAAAAAAAAAAAAAAAAAAAAAAAAAAAAAAAAAAAAAAAAAAAAAAAAAAAAAAAAAAAAAAAAAAAAAAAAAAAAAAAAAAAAAAAAAAAAAAAAAAAAAAAAAAAAAAAAAAAAAAAAAAAAAAAAAAAAAAAAAAAAAAAAAAAAAAAAAAAAAOADe/eB0LayBWB49q0IjbGObMdgp4d3udxCFvp6IVGKBoQz8vu+DaTQfnTOaOrQvGgvui533erFZToNAID1RR8PDJttk54ZAECzG2Ls5T4BAJy0QXQIAHAC6z6+bZfg/8nVAwmAZ3YR39XvE5y3q/W2vejydT/EF4b+Om8uVtv1ZZMAmNvhOn6gP6bzBFcv2m7TxyRD3sx6eAyAQx8/9iqdG7jaXuQhyl2/bNfpVABEiAw5LzTrXR7iKfLFiyY9CQBNH9NcpvMA612OWVxfrNPZA+gneJ0e5U2Mne2KKjTbbogZDZvtPp01gJjgcRXyNibLadmgaXM8gyxEABUy81LIWJuWC5ptjmeTt00qA6BC3kSBoUkLBeuLIZ7Xy3UqAKBCDlFklcAk5pt6kxlAhZQ/Cjn/hyG4JOkkBtcuTQWokEMUatPCwHoTJ6VDpgFUyLsolNOiwDrHSA0dAqBCNlGqSaBBnt4hACpkiFLv01LA4UOMVNIhACrkMop9TGAndYpd+g4AFXITxf6SFgHeDvGT9dv0TQAqZBXFfkkLALc5yhjL1A9QIX2qHjS7qMOwS18HoEJ+VSGco9s+Ts9V1IAKKXOnQjhDu6jJ0KblAjCRgQKHHGPVbYcAqJA2iuVUM7gZYiamMgBO6kKBi6hSm74AoEIa3005K02OSu0SgAr5wm9R6phqBYc+qpX36TMAKuTufJZT4XaIAme3HPJ7/2NtqgegQo5R6GV6srb/sY8JSr2KcueUIb/Gj60SQD0VkobTD2RW8WNdKgS7qN1wqUIAFfLQKor0SYUgQmbJEBUCqJBmiBJbFYIImSdDVAigQtIfUaBPKgQRMlOGqBBAhaQ/Y7q9CkGEzJAhKgRQIcWnG+9TjRUCb2M+Q59z13V3q7/rum6Tcz/MfFJGhQAqpHwmk1ONFQI3MYPhz659d/uNRNgfb1ZdHubOEBUCqJB0X/7Ns54KgcMQT9Nv2psmTdAc200fT3XdqBBAhfzPp/IIUSGcx2vb++7dPhU53Hzq40k6FQKokAfuyyOkkgqB63i03O7Toxze5XiCVoUAKqQkQ3KTzqpCcDwmt00aOVGIHFUIoEIeuO2Lf3eroELgXTzKcL9PT3Z418+woapCABWSmrv4pnybVAhntJmab9JMjpt4lKxCABXymcOn+Kp8TKnOCoE+yuVjKlDwdVOiVSGACvncYbz7P+RjSpVWCOxmapDTd8iwVyGACvnScZWH+I8/726alGqtEDjM1iCn75CsQgAV8jXN8fju3bvjPpVTIdQ8jxna9Ewu+yjVqhBAhRRYdoVgHnPXpOdzP5TPZOqsEAAVAjOfj+mP6Vkd/owym0VUCIAKGYM3UeJDk57bfZQ51l4hACoEZlhNbdMJ3PZRIi+gQgBUyBjk+acxp57KbKuvEAAVMgbvTvHC9HJ3UaCvvkIAVMgY9DHZ9T6dzn0U2FZeIQAqZAzeFURIk1KlGdJXXiEAKmQMcnmE1Jghx6orBECFjME6puqblOrNkFx1hQCokDF4M8NiahUrqseKKwRAhYzBISYa9pXPiz5WXCEAKmQMVjHRTfopmj4mGpr6KwRAhUD5Md37+u+4aeuvEAAVAsW7qX36af6IiXL9FQKgQqB4N3W/hKPEr2utEAAVMgZDwTym+pnMqtIKAVAhY3BTMI+pfyaT664QABUC5QOZ7UJe79rUXiEAKgTKTsjk9JMdY5q29goBUCFQdkLmuJS7broqKwRAhYxBW/QopP6HIUPFFQKgQqD8EcN2MX/TeF1jhQCokDEoPCBT/8OQbeUVAqBCoGQt5OWCXmzSVV4hACoEStZC9gu6de+XCisEQIWMwWbaD/YqHGKSCisEQIWMwZ8xwcdFbdK+rq9CAFTIGBS/LKT+kcy2ugoBUCFjcFn+Co7qT8msqq4QABUCBVfZ5WVd/9tVVyEAKmQM2tM9XDhVGkSurkIAVMgY3MUE75cVTX3VFQKgQqDgoO5lqsVx1jUWFXL1D00CTkuFQMHZ11SNJqZQId939aK92Fz3QzzU9/11zrnr/sbevWinbithHJ/3Vgwy1ggbbdtZiZtNS+k6geY85zlZvV9SBmzNiPT7vcDGF7b+kSVTJ9Llvmyatm2r+l3Vtg9No1ZGBt3X/Haw70fbNs3mC316P13jXw7a7Aq7L83D7z7Hg925R4X8BOAHviwW/nnl311UyJd21cdC9mW7Tbta94H/Xu/X9UPj6FNw7+G39iHyR4LfrqpmQ5/Opq3//iLH3q+qxqnda/Xah49Off2wQYWgQsBGnPPmVANbVMjNXLuOLDCqxJCPLBH9ymCEWDa1toHFeoMR0TJ5ud+2eY/XNdU68GV+9ZBQIagQKDLIPZVjWguky+PxZT/yZS/ttR7oGkN70YFkXOVZaMw8KHQ+8nWir5s7HYX5FtHXBrNAB/HdJuCaVWCpsHtwlMVPN5vBBzGukKEVIJH2she+7Mf2agT/Co4FvqXPZmAr4brm4ovq+QmiWCFfKh/5Rr7a3FOBVNvIs6iXV73Y5J9rrj943zqFuT8B36b7r5CGBUiEzRD8Kwz86efSUCHDKjIXUCHNKvA8YdeQneXnAQR/mt9hhTSryLeIS15d1/jIt9o+oEJQIYAKWQYqpPHMbF8hTRcXGpg3VDTX+sjLibuH+6qQyfPt+pYWsVlFniU8J1QIKgRQIQKoEEGDmFeIqzwvJ7SJStX4yEsLu3QvFeJmt2Zol7gIvICZZx0VggoBVAgqZPDM9hUin6EXW3Du3v5ABXx7FxXyU4MYd8gUeCG7VESFoEIAFeLpHqFC3IrZvkIazwJmc/e2ByoX2uIrpAm8jJAUGkSkSwVUCCoEUCHf0R1Chewj21fI5A3GZQOui5xZaIuukMEzs/UsRBOsTzoqJEOFACok0N1BhQye2bxCpmA5Lhs0iH2HWFXIc7Q/1IPn5W0TKgQVAua/y+LozqBC9pHNK6TxluOyQYPceYfUCs0r9+boOm7FWcQKFYIKgYxYYkP3BRWyYraukINnDSEV1CAKdqnACnmO9le2CQbnHBUyGyoEIgu0dE9QIUPP1hXiVgbjsoUmsK5YFVchuSYh2lLut5BQIagQMP2N2q90R1Ahh8DWFTJF1hNasjJ41ueTZYXMb165joSG3iT9UCHzoULAf7atuqiQx8jGFTJ4g3HZgOvYRGgLqpAhcD5vJPIYObcOFYIKgTy+/2TLU1Ehz8zGFfIcWVusbB7GWHkrpkIOgXNak4BKDHaoEFQIZHHkT7UwBBXSsXGFOM8GDFaHrNhQSGVUyCFyXr2jC9wLq1ijQlAhkEOV4QtoBxXSsU2F2E8QhJE0DT2bCsmqQhQiRJAhBhdijQpBhUAGe5aIju4BKqRj4wrp2E5Heh4jG4t7+woZovngPwRW84YKQYWA2Xhc0R1AhTyybYU4z5Z2zuBpjJ3KokIMCmCtECEyHSoEFQLLiyzhqXyokAPbVsgQ+P4fU9jHllhnUSEGl7sr5o6rUCGoEFiczzIyGUCFDMG2QvaRralkyBC4EJ1phXjW8ljMlRhRIXoIsEnmviZDUCHB9n/aZy5A3FNuh8jFeDSskI7VxE0pORgTKgQVAgubcgxNBlAhKzatkK6wgdlgXaqBvVmFTKwoOPor17O+3qFCUCGwLMefYjIEFTLZzjrvuBRd3gjhosSNQYUYzENs6a9e2MIbKkQLAX5J5o62yaBChmBaITsuR2cWIQZCsqkQb74hqGMbIypECQEWhsifiJpDhTyZ/je745JUZhFioDepkMl8QcaejQSHCkGFwKJGvv9nMqiQiS0rZMdleTSLEANvBhVisC7UF7NR6Q0VggqBRbnId/9MBhUSLCtkx6XZm71o2MBev0KezGe4AtsZUSGoEFiUn//tM4YK6Sz/k91xceLGaouugZi0K2RjfpgdGwqoEBUE2Kt7L0tDUCFDMKyQjgsUUrEvK4vBr9d1XU3v6vq49j7wLF67QgJb2Op8gQUqVIgGAjySkf/fbgsV8sRLGlUjJL6uj9U0puToXUqHcV8dt6+qawgFXOC5XtfVPjn6O4exmnHIlW6FTCwS/bqaDinR/7l0GKd67eMyN2ZgsbBd19P488egtMTn4OhQIagQWNL3Fu/sMeXGy7Z82Xm81iFHhQx8gxh+MrNCnvl20R/3iT5y2B/npMiWlvXCc8RtdXCXb8sbjzg61QoJfFFcT+mDq3q++ar6K8s3+tPefXiua883q/9FFTJedubL/jtejQC7ZC5lCNqspryEFdJdN/VQT2Ny9Bv30+yDjzdUyIFv5atRkIv7c7B/bcjcKR9/GklqmDxfb6dZIRNfEE+j5Biv114xlRmOI10ynoPdZEj5FSJWz/xlZAB6Zbk+UWFQIYFlXo9Ton/gxv3RRx7zr5Xwk5OHzjGY//IY7WfUlqPrDDeMjaNihQT+J/E4imIr3P6Y7YnfiT6EIESsJkNQIb8BqOav+7ODCplYIK6lA//gSMoFnXF5PEeLvSPzayueNnSLq8dor1chzT8fsCOhyd84+G/4Ar93JDdMwWQyBBXyGwAX7zhDUCFe9KdhDiu+3m4kmflDhc+5m13At45k5nfIqFYhXtYgAqO/fvC/PHXrx/zRN/+rjwoBkNxF5b++DBUSQ1jq8YfCb/nH03LjskBluSjEjzTLSbu4ZBUyLHlxp3D9FZ1ynPVT5OtEVAgqBOwmQ5jfyBAqRGHuQWKY2SAKHbIx29jtR+XHQKPGWNKv1z1/wKf8rcVhvQ78sXhzdw5n7ZU4qBAA+W10t09lUCEzxv3FF4XsEs11MnlrSOBrxYqWcFKdDKl5hrjP3VoCL45uN0WdySdUCIBgMkSgI3OoEPm4b78opB9JbrE/WWuTB09HR8sYA4uNlhXiE93KnXkZsVJdguxQIagQWNJ/mDEd8skqxI82n00+Qig8ltno748Jo8lr471hhVTLT/kY/IfktpqBiwoBmDvrbD8dggqZP+7rjM0+0WKGV91Vm0+qEyEzzvPGqkLiaFnboqcxGXoooEJQIbCoka8XWioUKsQnyurJcFPVSfPf3uiOyDMypDaqkJAK+Lnio/6tNaJCUCGwqDPfIDRUIlRIVdAnCyMtbB9ZLDrNScLe8Ld8ozOpkN4RmWfIyaBwa1QIKgQW5aL939xyqBD5uG+8P6ZPts+DasVLcHa0vCHq/HFe20UI0aQSIQJHrUcyqBCApX4qY9uQJVSIwW/9dCx2tF6WEpPaVMjJ9mmpN6iQ3pmtj8903l9ZZkYjoEIA5H8FiPiWyoEKOTvKbDAfmMm9stRO6wqcjL+Z0alXSO/s//vhs1HgVqgQVAjoTLMLhDZRGVAhR8pua7A+ZUaGjDpTISfzX71utSskOIMLOutDCIw6+69QIQDLLhGLuw0ZQIUIxkK7jzURFZAhXuUCnOx3sHnlCgnJYP1L/hcXHVWWA6NCAOTPZoV6+wkRVMippHfLTIXM3Y0KUyGnAp6WRqdaITGV8N9Pa3djjagQVAgs7cjzbB/IEirkSPlNBhEy7wm+n3mk9vXnYv5hsTbfDu4LeQA55jkBqBAAgS3PFHd2IYIKeaH8hlDMtMwQ875WNJRTfzVLfFWskAzHPFosCpmRQx4VggoBg4ftohBxZAAVEhzl19lHiPwEzRqdN5GF+kJe5/OdYoWE/KO/QGu5DieSHCoEQPeHtr3+GhFUSEgF3SBHms98D+u0tTjxMxrB6VVIst0C/pMd5eGzvjEEFQKgkCHM/aohTaiQlsqZCulJh8/8AtVh8pLlGPk5lvhGrUJO+S+nQLLdlNRaVggqBJAhAr7akBJUyLGguyMk0jHE7HPnQxWEA7J9b33VqpBQxI9q7ozr9qtxhaBCABkiELYqD2dQIYE0TCxyKG13+Tc0x+EcLE+8fID2WhWyzz/6CyTKpWKJb+0rBBUCyBCJPv96VVRIIg1hxnS95bjlaabxHAUn3np9alSqkF3+0V9gZ70aONhXCCoEkCFSvm4oH1TIrqCpEE+KhihcSDjbtDUtru8zH2ZdQvK6yHLJPG6dfYWgQgAbduXitt1QFqiQUNBUSEykqc6wPlW+VjWQlinzesm6iOT1LObtv3sbVEiuCgE4ch5h95BocaiQljQ0M14paZ1GdA35WtWWtLjM6yXrIiYhqkLueZfzI6BCAAROLGe9hxcVEkjFEwt4UjZmeLu5dK2qJz2veddL1kU8/XOl3PM+Z3CjQgAE9oHlbPfwokJa0jCY/KFssIlVvlY1FTY/GTQqJFFGP9i3kPx0rO0rBBUCWKNqv4cXFRIKWoFxInUjC0Ra1rQVjITqt0NUqBCv8MUTGAu4qb61rxBUCOCpjP0eXlRIW84CjGBRlt5k1Bomn0jRIB+4/sfeHe8mbgQBGN/33iysza4xONiNRO4SCJESdOprVkX3Z0XxkdkZO9/3BGkvsn8Zz9qiCnk28UvfWFjDOegrBIUQT2XUz/CikKazs5vaOoWG4o9kVGpET21UNgZvdb6tVyfcu+z/CxRCdFP9OZcobe94OINCtnZ2U5NTKer98WxsPbUVV8hWYQahwd03gTs5Chkf0T7lMsXwhxBBIbWdk6KtUynIPJKZoIyDuEJqhRmExi99JeoEFEJkbBxyabeo3ehQSLKzHJmcTr7R/+eycUjmp7RCksJcS2WytTevEBRCjEMESqMhgkJ+2nnq0Vq+QUc38YLo1b4y8tv2ZmMtxNUC8zUUQiRwWEYAIp0bEQqpzZzQSE6rQfirHybaj6CWmEIGBVCqDLZ6+wpBIcRjGaniZVkVhVh8IDN+FMKkpuAhpYOwQhoj3wV6duLJ7kGhEKKR9TEXbbtyN4VCtmZu8413alXf4KxuLWrSysiTkGBlAPhuXyEohFgPkSy1HQox8xe+v8NDPDAq99/YCCsk2NgKzQ6FoBDCISYGIiikdiV6kf++iPwjGT9/hWRhhQxKClEAZRRAGQohmppDUotCrteYeWXZwWlWzX8xxBtQiLOhkGhEIVVphaAQon0s7pAOheifP03W7/HDN1gMyTfkRRVyMKKQ1++rEBRCNJxLO+TvDoUo31lr0w9kLjUm7qHqCnkSVcirEYUsJ38JQCFEd9Sfiy+IdChEdQIR7L8UbC2/GIJCKiMKqVAICiEWRMq26VCI4tdRov2liyC8yauf11fIMwpBIUYUQjScm1yytEEh/9WTlccdndNtED5nql+vr5DaiEKCQyEohMjvo/p5GRRi5a2dB6ecn/21cKWvEG9EIS0K+TcUQtR/pqIO6VCIykHdMIXzJx9zX08N+gpxoqEQFDI+ouM56a2popBkZfNzcNq96ZpNvrW6QhIKQSEohAw2nJPSYxkUcrCyFjKNUcHT9NdCNBVyQCEoBIWQzY6nj1yo2KGQwudja4GfQ+cl889uuu31FRJRCApBIWS2vtSyahOcfChk3P29msasILjJ1icUgkKuhkKI/Ms5KYxDUIhwJ/NrIZfmfTH8kf83FIJCUAjRMUSF7RAUIlmcxltJ3+d8SGaTDSjkFYVcQiEohBiJbFBIOYU0OodPBLCU3DTz22xBIUsUgkJQCDESkX93CAoZu3ARnYHeZvslmVXKKASFoBAiUyORVLtLKES61US+mX+a6VHdVcwZhaAQFEJkbSQSUEgRhYSJnD2p5nhU93GTckYhKASFEBkciWwcCrFxOR6m8kKN1k0ov1qkfAmFoBAUQmRwJLJEITa2Pp+mopBqMgAJy4tAUAgKQSFEdkciO49CeH/7715mcTV8fAiLdcqXUAgKQSFEtkciO49C9D+Z30zmy/evZpX++NBWy914fqAQFIJCiBRHIjuPQtRv7ofJKORgDh+rtlquU5N/h0JQCAoRjui4jwIMQSF6DzriZBSSnI0e6zYs1rsr+EAhKASFyEU0nJMAQ1CIzkHdJlpol2/I6XYZfcSURUIhKASFkEJsiaxRiGSnPKe8U8nXbViOWDpFISgEhchH1O/X+Qv6hUIEW+c59aRw5uX60ikKQSEohEgv/xUQ2aAQuSIKucMfTZYPhaAQFEK6AZG/UIhY73lODa5EdbsQ8AcKQSEoRCai/s5jM02HQqTKs+rZCfcoABAUgkJQiHRE/V2nZpJHITL5PKtaJ9gqrGUAgkJQCAqRj+iegcgvFCJTj0Juqg5RWyAoBIWgEFKLgUhAIUrvAkMh/mEhLxAUgkJQiHxE/T6JrYagEBRSfT1BFIYgKEQsFIJCiP7QIRGFSPSCQq4TJOuHQlAICiH9cEhAIUV/ChSyUpiCoBAUgkJsRjik8Sik2GdkUIjf6BEEhQiHQlAI0WejeE4GhVy/xqCQVczyoRAUgkKI1OrPii/GRCEoxJJBUAgKQSH2Ix7LRBTy5Z1QiL5BUAgKQSFECvmTwDAEhYzqDYVYMAgKQSEoxH7EOCSikBGhkPEdtQyCQlAICiFSqP+QGYagEBQyPr/IejUoBIWgkPIRfUoMQ1AIChnfKmW90hGFoBAUYj2CIQMKGREKGZHfZsVO3qEQFIJCiDTa59vbopDxoRDjg5Dm1DmHQlAICiHS6dgIvEAVhaCQEW2yWjF451AICkEhNIVgSIVCvjIUcsn/yDo1Mfgid65/2LsX9cRxpAHDdd+KE2GrhIMD3szQEzoZ+pmQZw93+Z//7HlXEFGU7e+7giZtrBdJllEICkEhNSIWZSIKKQ+FlLVLeovicQwigkJQCAohunW/1d2fikJQSHlvSa3L6+ZTICgEhaCQm0d0rD/OoBAUUr4eaFZaHw+DfIZCUAgKIfLQu5aVUEhBvM3OIULy+8PnDAgKQSEohMhVu6xltSikXijkLdvMfzTjIJ+hEBSCQqYasTWkQSEFoRAPG1Pzf/Pjc/0FhaAQFOI4oqhFRRRSsf2yFbJL19LHw2r/9skPFIJCUIj7iEYtKgcUYvuv2K4m0yjnlWrv/FgfmwJ9oBAUgkL8RbTWokYUUq+Dwb/Cb/c1N34chiAFoRAUgkJ8RrTTolYopF7dkhWyr3Lyx3H/FuQzFIJCUAjRvHeGRBRiK7/XRT2WVV6Onyd/oBAUgkKIlrIzJKMQW4WkBaG3XCDNKPVCISgEhRA56IeW9IxC6nU++1iPSX/5AhgUgkJQyFwiWmlJ31CILfzEf3avsEunUcpDISgEhRDNbX9qg0JsT85/lhn2k15QPhYQBIWgEBQy54glmQcUYvt4dLsA8JYUmyAFoRAUgkLmHPFq3VcUYns3/sZUiKrGUcpDISgEhRDNdcdgQiG2W3F6pkIKDIJCUAgKIVrG4IBCbP8Zq8VPhaSD1A+FoBAUQuStrAU9o5BqtYu8yez0rI5B6odCUAgKIXLXu159tyQK4fDUlZ5RGqVCKASFoBD/Ef2qBY0opF55iceWJS3vIwgKQSGloRCiBfxI7VGI7exTkHnVaXknMQiFoBAU4iKiRgtCIca343a5e1P3gkJQCApBIcSjuijkhrNPjcyrbIAQFIJCUAjRTBWyQiG2/44XmVWdP4SgEBSCQoj8DxAohIdkKnS8yZ4QFIJCUAgRCkEhPCTzrmUdxSAUgkJQiJ+IDloQCrEek9slHlmW5KqhEBSCQojYF4JCjkvbnnrQsgZ7G6EQFIJCiFDIshSyX9pt5uhjPQaFoBAUQsSpZSik1YVtDIlaUhrEtHYeCkEhKIRok4pa+f+dikLcnJ7RLu60kF5s61AIClmAQohXsXi/ctZa0DcUUrO4rI0hweVUiBxQCApBIbSo94W+TvchyhGFWF8wcWlnlm3EuGYeCkEhKISo0aKSeExLalFIzUb99+WwsO/HIMYdUQgKQSG0rAcRg/ir1ZICCjFfouhlLq18zhTGeSgEhaAQolbLaicrKEEh5gPgw7L2Tb2IdXkeCkEhKIQoaFnNVB+ReUUh9rMDOSzqQd3R/luLQlAICqFlvbf8YaqbUyMKsd8Yot8W9RYZsa5DISgEhdDCXtaVpvqGjxcUcgO3RplJP1x+2BUKQSELUwhxYIg+T/P8dm1QyC2umCDzyOe2kDgXhaAQFELUTHZjyFpLGlGI/7f3+M3lVyMoCkEhc1EI0ahlxYnuq21RyC3+8FnmkctNMIfFKQSFoBDiIZkcJrkgkwWF+H9uxG3B5Uf9CYWgkPkohOiHltVP8mWnEYVUr9HF7E/duTxLJy1PISgEhRDbU+MUn5DRFxRyo+mzcTEKeRbbOkUhKGQ+CiHaq90h7vaz0t9sbkEPS1KIxFuqFYX85F8hKASFFN8YiHZa2GqK/+qAQurXOJ8MCZ3UyqFCdrpEhaAQFEJsDMlhelMhr4JC6hey78mQvaZ1P8xVIftFKgSFoBBiY4iupjcV8mL09/nuXyG+jmoxOA94e9/NUiFpwgpBISgkycURG0NymNpUiH4zugXFZSlk9LCfueDGm788JfLDnbb2ikJQyKwUQhR0cpMhBy0sGN2C0rIUIllLOngg6nbTXVkhvViWpqwQFIJCVIj+rji5yZCkZUWrW1BemEJWWlIKTlbrYtNe8bvRuJkK8a8QFIJCghD9bY2W9ntx0aMW1tu9vW1ZCglOrpfy1bq0uQtX+s9/cQNw/wpBISikFaLyIcXnUVRvWtpgppB2WQqRtdvrZaefVZgSOTr7w+/VuUJQCAo5f7MeUdTSUpCbt0taWBQzhfQLU8ioRW2Ds43LadMPtecJs5tr379CUAgKaYSo/Fbrck3mFy2tt1PIyoFCPMr19w6f4Y73Xd2BsLUnln+FoBAUUnzpEIU8oTWZRzXeTHvUgr4vTSGj0+slaUm5VEetqx93nTpWCApBIftLj5IkOmpxeZCb9rMWtzH0fV6aQuRdi0qDy8tjU3PPVBSbQpq8QlAICtEgRAU/bL1uDem0vNZyvep5aQrZa1nR5Z6hser7DYLVeoxnhaAQFHK4+MtHFLW8tdyut6zFvZoOt83SFCLJ4VaiqGWluruCGqN5HtcKQSEopLv4vRpEBz2j308CIdqb/m3i4hSy18Ie/e0ZWklpjZuV7l32rRAUgkJ2l98ribKe0eMUEJJsv1k5LE0hkrSw33l7570OlRcrR5PFJt8KQSEoJFx+ZRKt1D9Dfpf1jHrjb1a/OIWMWto43YNkgpdfd1t1rhAUgkIkXzwVSRSyGi7KGCyLJ6nWDy0pulWIgxcQtWLQ9ipCjT6ctVH3CkEhKORdjZ4oJCZDdB3EuHs9q958sB0Xp5BRPTFko6Wl+l+MZHD1e1cICkEhv5rdK4nJEOtzIHZbPatkf5rKZnEKkbWWlg9+TrPT/grUWhl8OOcKQSEopPnCkijRb3pe6SB2dVnPq7/BwyDj4hSyy1pc4wYhKVxj43brazkGhZSHQnwcqUyU9Mwexahwr2eWpGKtlhUdK8TBOt6jE4ToqeYQZHCaX9joJBSCQlBIsDr7kjhA1XRVpkt6boebPMbcOFaIA7pugottE2m4zvdi7WMxEoXUD4UU98Pq+QbiAFW76ZDwk57d5jZ/mDwsTiGjB7WGqNebCpGQb/pleEs6FYWgEBTyq7ImQzar/J+lTq7bY9azy8ON1h1SWJpC5KhnlBuDc0Kq/x8db2nyn7NORiEoBIXszX6SEBtUP9sMcr0OSS+oudkP/m1YmkJCqnC1GB5mp/0V//sf7beEoBAU4kkhQWHIl6J3deWQLuolpRueb78dPCvEwXai1N9253K66tfi9/Y7olBIhVBItSIMIaMXtRg4ZB/1ovJwy2WHNCxMIXLU83odbjlOt3J+jdortBhYKKRKKMT+sbnUClHhmkxBm1aqFh6zXlhz29/7uVmYQsL7zdC6+8Vk33LItzhG5+esU1MICkEhuy8+3UAU9dK2fZBadeusl7a5+SuHU+dbIQ52Nf9+sJNqhZmqlb2xilcjUUiFUEi94tcWaIl2SS8ubzqpUPeY9fLS4OAtO7H3rRAHM2ib4RazZb3F6w1Sb28QFIJCnCik0bNKfRCi0sWHgtKm+ypBkn6pQa5Re/4f4i7IPy50zZ/mpRA56gVtOmuD6MZIoakzNggKqR8KqUH2gvKmH/75vfJBaHmd9GvldX+hBEL/kPWLNY5Wqrbr5q59ks+e2rvmfp1UVYOBQvw/XJUuvVK6tfE8WchqNRsWznQ4CqkdCrH/TbJdr+66v7xXPt31/3evfBZaXh/65dK6aeWs2v4h6dc7eZwiSv+T/mWjf4XYLOTFfrBbsXuTi1vZECt0MZdoakAhKMSrQtq698peaHmFd61SvG+6IP+2p66532at0i8utu0W1NgrxP4Z78LiqjtjlL5PNyFqyNcnVrgrnAvsa45cKASFuL5XPgixQ/VL5e36ftV37dPf4eOp65v7dZk/HLyocdSafZ+bQmSvXyjH1d3wb7l6dx/rEtXg88WmK+TVY9TCkqAQFOJYIaPWLAnxQpla5fRZ1vIslv3NgZ/9K8R6P5HmeN/ctUH+rvB019zHfGOixq8Qq5V/Xmj78z5dj0JQiBeFGEyGBCHOULXPHiHWwH+enULkpHVK2xgf/q913CaDq8OA5tv1fXPXtU/hk1ZP3V2/elgnPbONoBAU4lohO63ZNyEYAkLqA7+fn0LkpI57szkVxaABhaAQ3wqRo1bsRQiGgJD661QPM1SIfKjb9jYMNegkKASFOFdIyFqvKARDQEj9H8PJUiEw5GTDUIOioBAU4l0hcqi/iY5gCAip+2M42CkEhpxsbq0GpQGFoBD/CpG11qsV4oFd922HyT079M1MIewNOc3n0x1kAgpBISgkJK1WIwRDvBeDs9e2FfRipRAYcpJqrb18FBSCQlwrREbOLasR7d51Ch3FrKPWKhopBIY05ucKG1zpKASF+FaInDi3jKxGXf+jjMtRKM9VIXLI6qi8n8/84DZMRSEoBIXImnPLyMEahEHpbaKrVK2BQljJS2/z+XBpMBi5UAgKcfeTrRdicwhbQurvUG2urxBW8tIwny9EGgxGLhSCQrx9VTi3jHYfrMZc4wnmh6srhM0hH2E+Lk/D9UYuFIJCPDOEc8vot8xqTH2GpDkrRPZpvkbdpVsiBIXUVwgK8c2QHIRcxrMyxzDp89yer6oQVvLSOKPPlgaDkQuFoBCfX5VRyGFMh2zHiY+w/TUVwqrML2FGLN8Gg5ELhaAQp/fKRshd7A7Jp8n/0H+5nkKYDsnNnB5hP9qOXCgEhfgS+3chMl3pLygOctPCWr/c69UUwnRIHOb0CHtjPHKhEBTiS+xZ/ieiU1IfxXEWA2yYvUJkt/a/I8T7TE8arUcuFIJCnIn9WYgcLcukXjw0JsMtV+UKYQotn4JYFI720zooBIX4U4iB2HshN+GQ3Mzmb9FcQSFMocVhTsLKjf3IhUJQiDexvwg5CYekJsznd/736grhkonjrD5ZHOxHLhSCQtxNHb8KuQiHxF58tfsS8XNlhXDJxHFWzwHlxmTkQiEoxKBTxU10RLt9muGeVPvx9bm+Qvw6JM30Atkn+1P5UAgKMVSI/b2yYBMd0T7633Jo0xj10vqlKMSArnkzzmvjS3wzHrlQCApx4JDyPy/R7pj8T4OYNH7oZb34V4h/ujpA6u6UrK94FIJC7BVi65CCuxvR+JEsCGK/I9VoveF1AQoxoGtejzN7IDmOhiMXCkEh/u+VWf5JRIePZECQmS5RZf8K8U/X2IR5TfTkY2s/cqEQFGLWfq1nl1v5pxGNx3e9SvlhH2Q67c4bh3LcB/8K8Q2R7Aqpu2MyQBUKQSEGCnF2r/xP9uxAQ2IYCAPwg8fIDLkGoQODEIPcveix6N1xt223dTT9vzeYmj/5d7OWCoDZcjq5gfC7XvE7bLxfu+u9Y9WI3w5KrmGwfpWWpQcYW6gffWPO67acAzTL/ax3frrwHT1X5+lZqOJjOgjq/HoDsTDaX4PHezfAWGdl3ttAAILKsSoysVsZoZIpeeaevgZLnaNTLT9CBUrrv4gu1+Jm2z+U3XIxAIKS/HpWtlcjARDUnHd3kZSdahnxc6wNBa1K5LTaUHsUu8zJFKpw2lG8AeDUIAAUreKZ0/S8fPQcxR71A7AxJB6ZOS065xiFTEu4ZiGX/FcZmf6jeAMAQGmq1YxkQWamWu7yPAFIQDX7tv3asPuf7cGBDAAAAMAgf+t7fNUVAAAAAAAAAAAAAAAAAAAAAAAAAAAAAAAAAAAAAAAAAAAAAAAAAAAAAAAAAAAAAAAAAAAAAAAAAAAAAAAAAAAAAAAAAAAAAAAAAAAAAAAAAAAAAAAAAAAAAAAAAAAAAAAAAAAAAAAAAAAAAAAAAAAAAAAAAAAAAAAAAAAAAAAAAAAAAAAAAAAAAAAAAAAAAAAAAAAAAAAAAAAAAAAAAAAAAAAAAAAAAAAAAAAAAAAAAAAAAAAAAAAAAAAAAAAAAAAAAAAAAAAAAAAAAAAAAAAAAAAAAAAAAAAAAAAAAAAAAAAAAAAAAAAAAAAAAAAAAAAAAAAAAAAAAAAAAAAAAAAAAAAAAAAAAAAAAAAAAAAAAAAAAAAAAAAAAAAAAAAAAAAAAAAAAAAAAAAAAAAAAAAAAAAAAAAAAAAAAAAAAAAAAAAAAAAAAAAAAAAAAAAAAAAAAAAAAAAAAAAAAAAAAAAAAAAAAAAAAAAAAAAAAAAAAAAAAAAAAAAAAAAAAAAAAAAAAAAAAAAAAAAAAAAAAAAAAAAAAAAAAAAAAAAAAAAAAAAAAAAAAAAAAAAAAAAAAAAAAAAAAAAAAAAAAAAAAAAAAAAAAAAAAAAAAAAAAAAAAAAAAAAAAAAAAAAAAAAAAAAAAAAAAAAAAAAAAAAAAAAAAAAAAAAAAAAAAAAAQNItiUftwSrPAAAAAElFTkSuQmCC;" vertex="1" parent="gtZmH0xc7X_VaX0TCZXS-14">
                    <mxGeometry x="13.030000000000001" y="59" width="153.95" height="90" as="geometry"/>
                </mxCell>
                <mxCell id="gtZmH0xc7X_VaX0TCZXS-15" value="" style="group" parent="1" vertex="1" connectable="0">
                    <mxGeometry x="150" y="550" width="180" height="159" as="geometry"/>
                </mxCell>
                <mxCell id="gtZmH0xc7X_VaX0TCZXS-11" value="" style="rounded=1;whiteSpace=wrap;html=1;" parent="gtZmH0xc7X_VaX0TCZXS-15" vertex="1">
                    <mxGeometry width="180" height="159" as="geometry"/>
                </mxCell>
                <mxCell id="gtZmH0xc7X_VaX0TCZXS-12" value="" style="image;sketch=0;aspect=fixed;html=1;points=[];align=center;fontSize=12;image=img/lib/mscae/Docker.svg;" parent="gtZmH0xc7X_VaX0TCZXS-15" vertex="1">
                    <mxGeometry x="10" y="10" width="50" height="41" as="geometry"/>
                </mxCell>
                <mxCell id="4" value="" style="shape=image;imageAspect=0;aspect=fixed;verticalLabelPosition=bottom;verticalAlign=top;image=data:image/png,iVBORw0KGgoAAAANSUhEUgAACIUAAAT8CAMAAAAgpVJRAAAB+1BMVEUAAAC7QEC9QEK+QEO9QEO9QEO+QES9QEO8QEO9QEK9QEOvQEC9QEO/QEC8QES+QEO/QEO9QEK3QEC7QEK6QEW/QES9QES/QEKAODj/Skr/S0v/S0v/S0v/QEBwMEB+Njp9NTt9NTt8NTt+Nzl4MDj/Skr/S0v/S0v/SEh9NDt9NTt8Mz3/Skp+Njv/S0t9NTt6NTp9NTp9NTp8NDj/TEx6Mjr/Skr/SEh8NDp9NTt8Mzn/S0t9Njv/S0v/UFD/Skp8Nj3/TEz/Skp+Njr/SUl/NTt+NTl9NDp8NDz/RUV9Njp6NTX/TEz/SUnfRUe5P0P3SkrWREaZOT7SREW5P0KFNjzvSEnFQUStPUHmR0jeRUfaREbNQkWJNzzzSUmxPkKdOj//SkrBQUSNOD21P0KBNjyhOz/7SkqlPECROT6pPEDiRkd8NTp7NDnJQUTqR0iHODq9QEK/QEC9QEL/TEz/S0u8QEO8QEP/TEzeRUj/UFAgIDAjIzAnJzAlJzAlJjAlJzAmJjAlJTAkJDAmJzAmJzAmJzAmJzAlJTAmJjAmJjAgKDAgIDAlJjAoKDAkKDAmJjAhITEmKDAnJzAlKDAmJjAnJzAlJTAjJjAmJzAmJzAlKjAmJjAlJzAnJzAnJzAkJzAmJjAmKDAmKDAnJzAnJzAnJzAlJTAmKDAmf25zAAAAqXRSTlMAQJ/f7//Pn1Bg3xCvEM+/b3AggDB/j48gYL/v/xAQf7//z28gMM+fIO/fUH9f3+8wYN9AUGCAQICfUI/fcBCQUECvgKCPb69AMLAwr3C/z///////////////////////3/////////////+QcP//YN8g75CgkKCAoCAQUHCPn7+AMEDf/++vYH+fICDPIEBfH59vYFCvkFCwzzCgkN+QcM+AoL+PwI9/4Yz3EwAAP0dJREFUeAHs2UEyA1EYBsA/zJ/IRISA+99UvYUqZD3vW+i+RhcAAAAAAAAAAAAAAAAAAAAAAAAAAAAAAAAAAAAAAAAAAAAAAAAAAAAAAAAAAAAAAAAAAAAAAAAAAAAAAAAAAAAAAAAAAAAAAAAAAAAAAAAAAAAAAAAAAAAAAAAAAAAAAAAAAAAAAAAAAAAAAAAAAAAAAAAAAAAAAAAAAAAAAAAAAAAAAAAAAAAAAAAAAAAAAAAAAAAAAAAAAAAAAAAAAAAAAAAAAAAAAAAAAAAAAAAAAAAAAAAAAAAAAAAAAAAAAAAAAAAAAAAAAAAAAAAAAAAAAAAAAAAAAAAAAAAAAAAAAAAAAAAAAAAAAAAAAAAAAAAAAAAAAAAAAAAAAAAAAAAAAAAA/xoAAAAAAAAAAAAAAAAAAAAAAAAAAAAAAAAAAAAAAAAAAAAAAAAAAAAAAAAAAAAAAAAAAAAAAAAAAAAAAAAAAAAAAAAAAAAAAAAAAAAAAAAAAAAAAAAAAAAAAAAAAAAAAAAAAAAAAAAAAAAAAAAAAAAAAAAAAAAAAAAAAAAAAAAAAAAAAAAAAAAAAAAAAAAAAAAAAAAAAAAAAAAAAAAAAAAAAAAAAAAAAAAAAAAAAAAAAAAAAAAAAAAAAAAAAAAAAAAAAAAAAAAAAAAAAAAAAAAAAAAAAAAAAAAAAAAAAAAAAAAAAAAAAAAAAAAAAAAAAAAAAAAAAAAAAMDu7n7p3h8eCgBgnuPS39ZjAQDMcXrsnw7nmgAA4PTUv+3PtT0AgEP/danNAQA8962X2hgAwHXpW8u1tgUAcOkhcTIAgI/JnAwA4GOCJwMA+Jj8yQAAPmZ4LQCACR9z660AAGZ/zLCvTQAAvPcw+WQAAK49zD4ZAIC1h8TJAAA+JnIyAICPiZ4MAOBj8icDAPiY/MkAAD5m2BUAwOyPGdZzAQDM/pjhowAAJnxM4GQAAB8TOBkAwMcETgYA8DGBkwEAfEzgZAAAHxM4GQDAx0RPBgDwMfmTAQB8jJMJAAAf42QCAMDHOJkAAPAxTiYAAHyMkwkAAB/jZAIAwMc4mQAA8DFOBgCY4LT24GQAgMk+e3AyAMBkux6cTB4A+BgnkwcAPsbJ5AGAj3EyeQDgY5xMHgD4GCeTAwA+xsnAF3t32R3HkUYBuHSOJ5xoDYGRKoraK5jsattrWMsohxnMYWb4/1+XK5yM1PLo7al+nl9xz7m33mIPAI7csT5GJ/NYAoA9GS8t5+Wl8eNpmO4e3Qk6mZUnVpumOf7ntbRLALC+kf9vc5IG6N7RnXbPMDPIk83//OWvCQB2ZX05/2hroo/Zv0MPDjSDFH9LALALkzb/VLulj9m/BwaaQYoTf08AMN1m/oV2rI/ZE53MyVPNL6wmAJhqkotOOUQfo5M5far5tZUEANOcybl7DtHH6GROrza/5R8JAKY5m3/b0rY+Riez9wxSnEsdASCFTH+2q4/RyayVDCKFdAHAOOcuOUQfo5NZO9/8vgupAwCsU6fnEH2MTqY8zv0djyUAmGop/6GLE31MR4eODC+DFJcSAEx3Of+xdksf09Hi8DJIcTJNBwA7y3mKdqyP6eZwqtLJkkEUMgDs05VcTM8h+hidzFOnmqnOJwDYjafzLrRjfYxOphwIKbyQmS0A+9Si3dbH7N3hijOIbersAdinFs9M9DGRnUz/M0jxbOoOAPvUfZ4P0ccUiwM4Umab2h0Az+Vd25wMso/Ryaw83+zaauoAAPvUqBwS38foZLofCOl+LAQANvIetFsTfcweLNafQWxTuwPgbN6TdjygPkYn88LUDNL9WAgA7OQ9ascD6WN0MidPNYVtKgAhJ0M65BB9TLFY4+Nc29QAAPapRbutj9mlw9VnENvU7gBYzh0sTfQxAZ1MPzNIcWIldQeAfWrdz3YXR7ugk1l7sSlsUwMA2KfWmEP+NIpwuJIjZdO9lPYIAJbyMHLIkUOjQifT/UCIYyGxAOxTi+WtiT5mmsWKM4htagAA+9SiHetjpjlccwZxLCQAgH1q0Y71MRGdTPyRMtvU/QNgPefYHBLfx+hkTpcMYpsaD8A+df85RB9THK7zQIht6v4BcDnv29LL+piwTiY+g9imAtDVznL+UZXPdu8b/R6dzNpqU9imAnDwruRcdQ55ePQ7dDJr55s74ZUEdAZOhtScQ46MCp1Mp8e5011IQBSwTy22JvqY37RYcwaxTQ0FYJ9atFv6mN90uN4M4lhINAD71KId62N+y7HUKydLBrFNjQdgnzqbHKKPKe7q/5GyrlYTEALsU6fkEH1McbTHB0IcC6kAgH1qsbStjymKY3VmENvUOAC+tJvybFcfU9xVZQaxTY0EYJ86JYfoY4qj/T9S1sWraV8A4LU8A5uTHvUxOpmV55sZOJ4AoFf71OLiRB/zo7v6fyDENhWAAMt5JtotfcyPjlaXQRwLAaCP+9SiHYf3MTqZF0oGsU0FoId28sy0Y33M/933YApw8lQzMy+lfQOApTw77Vgf8z+PRD/OdSxkMADsU4t2Wx/zXwthGWRw21QA7FOLZyYD72NKJxOTQQa5TQXAPrXYnMT3MYPqZNZebIqBbFMBsE+NzyFHRv21EHCkrOfbVABYyvE5JLiPCehk4g+ExG9TAeBMPgDt1mSofUzxyNxnkOLZFAAAX9p1146H2scUCwEZpN/bVAC4kg9GO66/jwnsZMqRsplbTfEAcDKkVzmk9DHD7GROH2+KwrEQAOxTD+aM2cKo/xYCDoT0epsKAJfzAVqapFm4v/Qx/e5kIjKIYyEA2KfO9Nnuo6NiaJ3M2mpT2KYCYJ968Dmk9DGD62TWzjeFbSoA9qkBOaT0MfV3Ml0f59qmAmCfWixvTQbVxxSPzGkGKU6sJACY231q0b4+qD6mWIjLILapANinFu24lj4moJM5+WQT4dUEAHfYazlEO66hjwnoZE6fan7GsRAA7FMjcsi9o/myEHAgpMfbVADYyFGWttO+HCl9TAWdTEAGCT8WAgBnczfxz3bvHs2bRwIySH+3qQCwkyNtTgbRxxQLsUfKunspAcAMLOX4HNL/Pia2k1l5oilsUwGwT71ztib19zHFIwEHQvq7TQWA5Rys3aq/jykWepFBbFMBsE8t2nH/+5igTuaFJ5twryQAqHCfWrTj/vcxAZ3MyVNND1xIAFDlPrVox3X3McU9vXmca5sKgH1qsbFdcx9THHqwPxnEsRAA7FOLzUnFfUzxQHwGsU0FwD61Qw4pfUzdnczai01vrCYAmJ313CObk/g+JriTWXm+mcKxEADsUyNyyN2jefdAwIGQnm5TAeBy7pV26/E6+5jinoAM0s9tKgDsLOd+accBfUxAJxOdQeK3qQBwJfdNO66xjyke6HCkLMbxFA8AJ0Pic0jpYyrtZE4fbwrbVADsU2O129X1McWhIx0OhERYSQAwrH1qsTSprY8pFnuaQWxTAbBPLTYnlfUxxeH0o7XVpqdeSuEAsE+NzyGlj6muk1k730RyLAQA+9TpOeTuUU0WAx7n9nKbCgAbub/arUnpYypyeGoGcSwEAF/axWvHpY+pqZPpcwaxTQXAPrVo3xjV5s2SQWxTAXAypN+uXhtV5npT2KYCYJ/ab1dvjKpy81bTZ8+mAwIAy7n/br81qsnbTe+3qQBgn1q885ZO5mCspoMCADs5yyE6GcdCALBPnZJDdDK2qQDYp0Z49y2djGMhANinhrj6nk7GNhUA+9Q5PB+ik7FNBcA+VQ65bpsKAGWfKofoZE6kgwUAZ/K8uf2+TsY2FQBf2tXzbFcn82o6YABwJecsh+hkjicAcDJkdjlEJ2ObCoB9qjNm1x0LAYDLeU5dfVcnY5sKgH3qnD/b1cm8lADAPnWmOUQn4yM7AOxT5ZCbH9imAmCfmufah++P5tNHtqkxALBP9Wz346YnXkkAMKx9qhzSl07mQgoCAK/lEHLIR7apMQCwT5VDPh76sRAA+CTX4Oq7n+pk5mybCgBnc5T4Z7s6mdUEAHF2chA55GPHQgBwMkQOifGZbSoA9qnVuPr+aI58/oVtKgDDtpxrcvut0fz40jYVAPvUGJ7tfmabCoB9qhwywE7mZAIA+9SAHKKTObGSAMA+dQZnzN7SydimAuBLu14+29XJvJQAwD41IIfoZC4lAIi3nuPIIZ/ZpgJgn1qjq+/rZPp8LAQALuc4zph9aZsKgH1qDM92P7NNBWDAruRcfw7RydimAuBkiBwS3sk8mwDAPvVgfPXuWzoZ21QA7FNDXH1PJ+MjOwDsU50Pie1kHAsBwD5VDik+s00FwD5VDhlAJ3M+9QgAbOSBuP2+TuaxBAC+tPNst/jMNhUA+1Q5JKyTsU0FwMkQOSTAl7apANinDkP/zph9ZpsKwFAt52G5+u5AO5lX088AgH2qZ7tfNwfheOobANjJweSQb2xTAbBPlUNC3PzCsRAA7FNDOGP2rW0qAPapnu3W2sm8lADAPlUOCehkLqU+AoBJjiaHfGubCoB96uB891ZvOxnb1PoBcCYP2dV3P62+k3kl/Q4A8KWdZ7tvNzN0IfUUAFzJ4eSQ67apADgZIoeEuHmrmZXvU28BwFLm6vvxnYxtKgDDcznnzO236uxkVhMA2Kc6HxLRyZxMAGCfKofss5OxTQXgX+zdxbIkNxBAUW1Ma281jBszMzN1NFUNMzw009eb2fOooVJdOucrMiKvUvrUpTCHDH1kB4A+te4zZk3cTiakTQUAfapnu602FQB9qjkkxlCbCkB9Ps6LZw6J38k8djgBgD51xQxG8TsZbSoAVVjCSsYZs/idzPsJAIr3bKaEZ7vjiWMhANTm1UwRc0irTQXAyRBi5pChYyEA6FP53fkmZCejTQVAn8rgQuxORpsKgD7V+ZD4nYw2FQB9qjmk/J3MVgIAfao55EBabSoAlXk6s6vpxZXayXyYAMCXdp7tBuxkHAsBQJ9qDplBq00FoC6ncinMIUPHQgDQp4Zwxmx8SZsKQFVeyezH4Px9S3fl2HyOJgDQp3q2O5Or2lQAqvJaLoY55JI2FQBf2oUwh1zRpgKgT2UHly8Wu5P5KAGAPtWz3YCdzPE0OwDQp5pDrmhTAdCnEjOHXHUsBAB9KjFzyI2K2lQAOJ1n4IzZ9fuW4uatY7N4PwGAL+08253P7XqOhQDAq7kk5pAb2tS9AeBkiDkkZiejTQVAn8rgYuBOZvXbVACY42QI0yZ+J/NiAgB9qme7ATsZbSoA+lRzSMxO5q0EAPpUc0jXOxltKgD6VGfMmqidzNEEAPpUz3YX5bZjIQDoU4mZQ25U0qYCwKlcFnPIzVsHORYCAPpUBqNOdzKr36YCwNOZBZlud7iTWf02FQBeLa1P9Wz35q062lQAeC0TN4fMvpN57HACgAVzMsQcckObCoA+lRmcb7rYybyfAGDlvZIXzTnV+XcyjoUAoE8N4XzIDW0qAPrUEOaQm7ccCwFAnxrCHHJbmwqAPpWZTS/Ot5PRpgKgTw3g2e7NW9pUAPSpIcwhd7WpANTg41wec8jafG0qAOhT2ZhtDhnvuJP5MPUGAFjJlHjGbP3YDl5MvQEAz+YCeba71v82FQBezQUyh4xvORYCgJMhIcwh64toUwFAn8rg4iJ2MkcTAOhTOajPm9l3Mo6FAKBP7ZDzIa02FQB9agxzyFCbCoA+NYQ5ZDw59m8fpZ4BgKdzh5wxa2bdyRxPAOBLu254tjvUpgKgTw1gDvnvTuZwAgAnQzpiDmm1qQDoU0M4Y/bPncz7qYcA4JVM56bNPncyjoUAoE8N4Nlu2/M2FQBey4Uyhwx9ZAeAPjWEOWQ80aYCoE9lGe7sdcas1aYCoE+N4dnuUJsKgD41gDnk953MW6m3AODtXCpzSKtNBUCfGsMcMjyaegwATmdiTbd33Ml8kQDAl3YBPNv9MgGAPjWCOeSrBAAe6wYwhzycAMDlMjpwvrGPAaA2p+xkyjA4f98/fG0fA4CdTAjPdh9KAFCBb3JpzCGiEAAq8W0uiznkuwQAxhC6Nr143/cJAKrxQy4HPyYAkKgS4JUEAFU5+2guAY/+zK6d3MgNA2EYVRqkZo4SJwCBN0HgvZNgDl4ZvbuMPnnf3ct7UXz4q9oEAI9m1yFX4HieHg8AvHhS/d+yIQSAR/ViD/mf1jQBwANrr/9LiDAXOwgAtD3PT/xL8yk9TwEAWLZayin3J/6evp5KKTVtYwIAPjPatteSV+vInzL3XI49tX+aHgCgR7SHywsA/IbRWqrHSZB8zxw3l5rSoj0A4O8ESS05d0VyEeVx1LRJDwD4Z8bS0h4bycM9tfaeS6m78gCAK0mSLe21xEzS7/HUEt1RU2pjTADAdUdJS6l+rJK195uLjp4v1bG1cdN7BwAwoktiLalHlEnuV5Imvfc1iqPUukdzLA+ydQCANhntLKW01+iTsxx6mP9IZYQ1n5Wzo0ZsRG1EbnyrNwAAxsXSfsS4cEYBAAAAAAAAAAAAAAAAAAAAAAAAAAAAAAAAAAAAAAAAAAAAAAAAAAAAAAAAAAAAAAAAAAAAAAAAAAAAAAAAAAAAAAAAAAAAAAAAAAAAAAAAAAAAAAAAAAAAAAAAAAAAAAAAAAAAAAAAAAAAAAAAAAAAAAAAAAAAAAAAAAAAAAAAAAAAAAAAAAAAAAAAAAAAAAAAAAAAAAAAAAAAAAAAAAAAAAAAAAAAAAAAAAAAAAAAAAAAAAAAAAAAAAAAAAAAAAAAAAAAAAAAAAAAAAAAAAAAAAAAAAAAAAAAAAAAAAAAAAAAAAAAAAAAAAAAAAAAAAAAAAAAAAAAAAAAAAAAAAAAAAAAAAAAAAAAAAAAAAAAAAAAAAAAAAAAAAAAAAAAAAAAAAAAAAAAAOADe/eB0LayBWB49q0IjbGObMdgp4d3udxCFvp6IVGKBoQz8vu+DaTQfnTOaOrQvGgvui533erFZToNAID1RR8PDJttk54ZAECzG2Ls5T4BAJy0QXQIAHAC6z6+bZfg/8nVAwmAZ3YR39XvE5y3q/W2vejydT/EF4b+Om8uVtv1ZZMAmNvhOn6gP6bzBFcv2m7TxyRD3sx6eAyAQx8/9iqdG7jaXuQhyl2/bNfpVABEiAw5LzTrXR7iKfLFiyY9CQBNH9NcpvMA612OWVxfrNPZA+gneJ0e5U2Mne2KKjTbbogZDZvtPp01gJjgcRXyNibLadmgaXM8gyxEABUy81LIWJuWC5ptjmeTt00qA6BC3kSBoUkLBeuLIZ7Xy3UqAKBCDlFklcAk5pt6kxlAhZQ/Cjn/hyG4JOkkBtcuTQWokEMUatPCwHoTJ6VDpgFUyLsolNOiwDrHSA0dAqBCNlGqSaBBnt4hACpkiFLv01LA4UOMVNIhACrkMop9TGAndYpd+g4AFXITxf6SFgHeDvGT9dv0TQAqZBXFfkkLALc5yhjL1A9QIX2qHjS7qMOwS18HoEJ+VSGco9s+Ts9V1IAKKXOnQjhDu6jJ0KblAjCRgQKHHGPVbYcAqJA2iuVUM7gZYiamMgBO6kKBi6hSm74AoEIa3005K02OSu0SgAr5wm9R6phqBYc+qpX36TMAKuTufJZT4XaIAme3HPJ7/2NtqgegQo5R6GV6srb/sY8JSr2KcueUIb/Gj60SQD0VkobTD2RW8WNdKgS7qN1wqUIAFfLQKor0SYUgQmbJEBUCqJBmiBJbFYIImSdDVAigQtIfUaBPKgQRMlOGqBBAhaQ/Y7q9CkGEzJAhKgRQIcWnG+9TjRUCb2M+Q59z13V3q7/rum6Tcz/MfFJGhQAqpHwmk1ONFQI3MYPhz659d/uNRNgfb1ZdHubOEBUCqJB0X/7Ns54KgcMQT9Nv2psmTdAc200fT3XdqBBAhfzPp/IIUSGcx2vb++7dPhU53Hzq40k6FQKokAfuyyOkkgqB63i03O7Toxze5XiCVoUAKqQkQ3KTzqpCcDwmt00aOVGIHFUIoEIeuO2Lf3eroELgXTzKcL9PT3Z418+woapCABWSmrv4pnybVAhntJmab9JMjpt4lKxCABXymcOn+Kp8TKnOCoE+yuVjKlDwdVOiVSGACvncYbz7P+RjSpVWCOxmapDTd8iwVyGACvnScZWH+I8/726alGqtEDjM1iCn75CsQgAV8jXN8fju3bvjPpVTIdQ8jxna9Ewu+yjVqhBAhRRYdoVgHnPXpOdzP5TPZOqsEAAVAjOfj+mP6Vkd/owym0VUCIAKGYM3UeJDk57bfZQ51l4hACoEZlhNbdMJ3PZRIi+gQgBUyBjk+acxp57KbKuvEAAVMgbvTvHC9HJ3UaCvvkIAVMgY9DHZ9T6dzn0U2FZeIQAqZAzeFURIk1KlGdJXXiEAKmQMcnmE1Jghx6orBECFjME6puqblOrNkFx1hQCokDF4M8NiahUrqseKKwRAhYzBISYa9pXPiz5WXCEAKmQMVjHRTfopmj4mGpr6KwRAhUD5Md37+u+4aeuvEAAVAsW7qX36af6IiXL9FQKgQqB4N3W/hKPEr2utEAAVMgZDwTym+pnMqtIKAVAhY3BTMI+pfyaT664QABUC5QOZ7UJe79rUXiEAKgTKTsjk9JMdY5q29goBUCFQdkLmuJS7broqKwRAhYxBW/QopP6HIUPFFQKgQqD8EcN2MX/TeF1jhQCokDEoPCBT/8OQbeUVAqBCoGQt5OWCXmzSVV4hACoEStZC9gu6de+XCisEQIWMwWbaD/YqHGKSCisEQIWMwZ8xwcdFbdK+rq9CAFTIGBS/LKT+kcy2ugoBUCFjcFn+Co7qT8msqq4QABUCBVfZ5WVd/9tVVyEAKmQM2tM9XDhVGkSurkIAVMgY3MUE75cVTX3VFQKgQqDgoO5lqsVx1jUWFXL1D00CTkuFQMHZ11SNJqZQId939aK92Fz3QzzU9/11zrnr/sbevWinbithHJ/3Vgwy1ggbbdtZiZtNS+k6geY85zlZvV9SBmzNiPT7vcDGF7b+kSVTJ9Llvmyatm2r+l3Vtg9No1ZGBt3X/Haw70fbNs3mC316P13jXw7a7Aq7L83D7z7Hg925R4X8BOAHviwW/nnl311UyJd21cdC9mW7Tbta94H/Xu/X9UPj6FNw7+G39iHyR4LfrqpmQ5/Opq3//iLH3q+qxqnda/Xah49Off2wQYWgQsBGnPPmVANbVMjNXLuOLDCqxJCPLBH9ymCEWDa1toHFeoMR0TJ5ud+2eY/XNdU68GV+9ZBQIagQKDLIPZVjWguky+PxZT/yZS/ttR7oGkN70YFkXOVZaMw8KHQ+8nWir5s7HYX5FtHXBrNAB/HdJuCaVWCpsHtwlMVPN5vBBzGukKEVIJH2she+7Mf2agT/Co4FvqXPZmAr4brm4ovq+QmiWCFfKh/5Rr7a3FOBVNvIs6iXV73Y5J9rrj943zqFuT8B36b7r5CGBUiEzRD8Kwz86efSUCHDKjIXUCHNKvA8YdeQneXnAQR/mt9hhTSryLeIS15d1/jIt9o+oEJQIYAKWQYqpPHMbF8hTRcXGpg3VDTX+sjLibuH+6qQyfPt+pYWsVlFniU8J1QIKgRQIQKoEEGDmFeIqzwvJ7SJStX4yEsLu3QvFeJmt2Zol7gIvICZZx0VggoBVAgqZPDM9hUin6EXW3Du3v5ABXx7FxXyU4MYd8gUeCG7VESFoEIAFeLpHqFC3IrZvkIazwJmc/e2ByoX2uIrpAm8jJAUGkSkSwVUCCoEUCHf0R1Chewj21fI5A3GZQOui5xZaIuukMEzs/UsRBOsTzoqJEOFACok0N1BhQye2bxCpmA5Lhs0iH2HWFXIc7Q/1IPn5W0TKgQVAua/y+LozqBC9pHNK6TxluOyQYPceYfUCs0r9+boOm7FWcQKFYIKgYxYYkP3BRWyYraukINnDSEV1CAKdqnACnmO9le2CQbnHBUyGyoEIgu0dE9QIUPP1hXiVgbjsoUmsK5YFVchuSYh2lLut5BQIagQMP2N2q90R1Ahh8DWFTJF1hNasjJ41ueTZYXMb165joSG3iT9UCHzoULAf7atuqiQx8jGFTJ4g3HZgOvYRGgLqpAhcD5vJPIYObcOFYIKgTy+/2TLU1Ehz8zGFfIcWVusbB7GWHkrpkIOgXNak4BKDHaoEFQIZHHkT7UwBBXSsXGFOM8GDFaHrNhQSGVUyCFyXr2jC9wLq1ijQlAhkEOV4QtoBxXSsU2F2E8QhJE0DT2bCsmqQhQiRJAhBhdijQpBhUAGe5aIju4BKqRj4wrp2E5Heh4jG4t7+woZovngPwRW84YKQYWA2Xhc0R1AhTyybYU4z5Z2zuBpjJ3KokIMCmCtECEyHSoEFQLLiyzhqXyokAPbVsgQ+P4fU9jHllhnUSEGl7sr5o6rUCGoEFiczzIyGUCFDMG2QvaRralkyBC4EJ1phXjW8ljMlRhRIXoIsEnmviZDUCHB9n/aZy5A3FNuh8jFeDSskI7VxE0pORgTKgQVAgubcgxNBlAhKzatkK6wgdlgXaqBvVmFTKwoOPor17O+3qFCUCGwLMefYjIEFTLZzjrvuBRd3gjhosSNQYUYzENs6a9e2MIbKkQLAX5J5o62yaBChmBaITsuR2cWIQZCsqkQb74hqGMbIypECQEWhsifiJpDhTyZ/je745JUZhFioDepkMl8QcaejQSHCkGFwKJGvv9nMqiQiS0rZMdleTSLEANvBhVisC7UF7NR6Q0VggqBRbnId/9MBhUSLCtkx6XZm71o2MBev0KezGe4AtsZUSGoEFiUn//tM4YK6Sz/k91xceLGaouugZi0K2RjfpgdGwqoEBUE2Kt7L0tDUCFDMKyQjgsUUrEvK4vBr9d1XU3v6vq49j7wLF67QgJb2Op8gQUqVIgGAjySkf/fbgsV8sRLGlUjJL6uj9U0puToXUqHcV8dt6+qawgFXOC5XtfVPjn6O4exmnHIlW6FTCwS/bqaDinR/7l0GKd67eMyN2ZgsbBd19P488egtMTn4OhQIagQWNL3Fu/sMeXGy7Z82Xm81iFHhQx8gxh+MrNCnvl20R/3iT5y2B/npMiWlvXCc8RtdXCXb8sbjzg61QoJfFFcT+mDq3q++ar6K8s3+tPefXiua883q/9FFTJedubL/jtejQC7ZC5lCNqspryEFdJdN/VQT2Ny9Bv30+yDjzdUyIFv5atRkIv7c7B/bcjcKR9/GklqmDxfb6dZIRNfEE+j5Biv114xlRmOI10ynoPdZEj5FSJWz/xlZAB6Zbk+UWFQIYFlXo9Ton/gxv3RRx7zr5Xwk5OHzjGY//IY7WfUlqPrDDeMjaNihQT+J/E4imIr3P6Y7YnfiT6EIESsJkNQIb8BqOav+7ODCplYIK6lA//gSMoFnXF5PEeLvSPzayueNnSLq8dor1chzT8fsCOhyd84+G/4Ar93JDdMwWQyBBXyGwAX7zhDUCFe9KdhDiu+3m4kmflDhc+5m13At45k5nfIqFYhXtYgAqO/fvC/PHXrx/zRN/+rjwoBkNxF5b++DBUSQ1jq8YfCb/nH03LjskBluSjEjzTLSbu4ZBUyLHlxp3D9FZ1ynPVT5OtEVAgqBOwmQ5jfyBAqRGHuQWKY2SAKHbIx29jtR+XHQKPGWNKv1z1/wKf8rcVhvQ78sXhzdw5n7ZU4qBAA+W10t09lUCEzxv3FF4XsEs11MnlrSOBrxYqWcFKdDKl5hrjP3VoCL45uN0WdySdUCIBgMkSgI3OoEPm4b78opB9JbrE/WWuTB09HR8sYA4uNlhXiE93KnXkZsVJdguxQIagQWNJ/mDEd8skqxI82n00+Qig8ltno748Jo8lr471hhVTLT/kY/IfktpqBiwoBmDvrbD8dggqZP+7rjM0+0WKGV91Vm0+qEyEzzvPGqkLiaFnboqcxGXoooEJQIbCoka8XWioUKsQnyurJcFPVSfPf3uiOyDMypDaqkJAK+Lnio/6tNaJCUCGwqDPfIDRUIlRIVdAnCyMtbB9ZLDrNScLe8Ld8ozOpkN4RmWfIyaBwa1QIKgQW5aL939xyqBD5uG+8P6ZPts+DasVLcHa0vCHq/HFe20UI0aQSIQJHrUcyqBCApX4qY9uQJVSIwW/9dCx2tF6WEpPaVMjJ9mmpN6iQ3pmtj8903l9ZZkYjoEIA5H8FiPiWyoEKOTvKbDAfmMm9stRO6wqcjL+Z0alXSO/s//vhs1HgVqgQVAjoTLMLhDZRGVAhR8pua7A+ZUaGjDpTISfzX71utSskOIMLOutDCIw6+69QIQDLLhGLuw0ZQIUIxkK7jzURFZAhXuUCnOx3sHnlCgnJYP1L/hcXHVWWA6NCAOTPZoV6+wkRVMippHfLTIXM3Y0KUyGnAp6WRqdaITGV8N9Pa3djjagQVAgs7cjzbB/IEirkSPlNBhEy7wm+n3mk9vXnYv5hsTbfDu4LeQA55jkBqBAAgS3PFHd2IYIKeaH8hlDMtMwQ875WNJRTfzVLfFWskAzHPFosCpmRQx4VggoBg4ftohBxZAAVEhzl19lHiPwEzRqdN5GF+kJe5/OdYoWE/KO/QGu5DieSHCoEQPeHtr3+GhFUSEgF3SBHms98D+u0tTjxMxrB6VVIst0C/pMd5eGzvjEEFQKgkCHM/aohTaiQlsqZCulJh8/8AtVh8pLlGPk5lvhGrUJO+S+nQLLdlNRaVggqBJAhAr7akBJUyLGguyMk0jHE7HPnQxWEA7J9b33VqpBQxI9q7ozr9qtxhaBCABkiELYqD2dQIYE0TCxyKG13+Tc0x+EcLE+8fID2WhWyzz/6CyTKpWKJb+0rBBUCyBCJPv96VVRIIg1hxnS95bjlaabxHAUn3np9alSqkF3+0V9gZ70aONhXCCoEkCFSvm4oH1TIrqCpEE+KhihcSDjbtDUtru8zH2ZdQvK6yHLJPG6dfYWgQgAbduXitt1QFqiQUNBUSEykqc6wPlW+VjWQlinzesm6iOT1LObtv3sbVEiuCgE4ch5h95BocaiQljQ0M14paZ1GdA35WtWWtLjM6yXrIiYhqkLueZfzI6BCAAROLGe9hxcVEkjFEwt4UjZmeLu5dK2qJz2veddL1kU8/XOl3PM+Z3CjQgAE9oHlbPfwokJa0jCY/KFssIlVvlY1FTY/GTQqJFFGP9i3kPx0rO0rBBUCWKNqv4cXFRIKWoFxInUjC0Ra1rQVjITqt0NUqBCv8MUTGAu4qb61rxBUCOCpjP0eXlRIW84CjGBRlt5k1Bomn0jRIB+4/sfeHe8mbgQBGN/33iysza4xONiNRO4SCJESdOprVkX3Z0XxkdkZO9/3BGkvsn8Zz9qiCnk28UvfWFjDOegrBIUQT2XUz/CikKazs5vaOoWG4o9kVGpET21UNgZvdb6tVyfcu+z/CxRCdFP9OZcobe94OINCtnZ2U5NTKer98WxsPbUVV8hWYQahwd03gTs5Chkf0T7lMsXwhxBBIbWdk6KtUynIPJKZoIyDuEJqhRmExi99JeoEFEJkbBxyabeo3ehQSLKzHJmcTr7R/+eycUjmp7RCksJcS2WytTevEBRCjEMESqMhgkJ+2nnq0Vq+QUc38YLo1b4y8tv2ZmMtxNUC8zUUQiRwWEYAIp0bEQqpzZzQSE6rQfirHybaj6CWmEIGBVCqDLZ6+wpBIcRjGaniZVkVhVh8IDN+FMKkpuAhpYOwQhoj3wV6duLJ7kGhEKKR9TEXbbtyN4VCtmZu8413alXf4KxuLWrSysiTkGBlAPhuXyEohFgPkSy1HQox8xe+v8NDPDAq99/YCCsk2NgKzQ6FoBDCISYGIiikdiV6kf++iPwjGT9/hWRhhQxKClEAZRRAGQohmppDUotCrteYeWXZwWlWzX8xxBtQiLOhkGhEIVVphaAQon0s7pAOheifP03W7/HDN1gMyTfkRRVyMKKQ1++rEBRCNJxLO+TvDoUo31lr0w9kLjUm7qHqCnkSVcirEYUsJ38JQCFEd9Sfiy+IdChEdQIR7L8UbC2/GIJCKiMKqVAICiEWRMq26VCI4tdRov2liyC8yauf11fIMwpBIUYUQjScm1yytEEh/9WTlccdndNtED5nql+vr5DaiEKCQyEohMjvo/p5GRRi5a2dB6ecn/21cKWvEG9EIS0K+TcUQtR/pqIO6VCIykHdMIXzJx9zX08N+gpxoqEQFDI+ouM56a2popBkZfNzcNq96ZpNvrW6QhIKQSEohAw2nJPSYxkUcrCyFjKNUcHT9NdCNBVyQCEoBIWQzY6nj1yo2KGQwudja4GfQ+cl889uuu31FRJRCApBIWS2vtSyahOcfChk3P29msasILjJ1icUgkKuhkKI/Ms5KYxDUIhwJ/NrIZfmfTH8kf83FIJCUAjRMUSF7RAUIlmcxltJ3+d8SGaTDSjkFYVcQiEohBiJbFBIOYU0OodPBLCU3DTz22xBIUsUgkJQCDESkX93CAoZu3ARnYHeZvslmVXKKASFoBAiUyORVLtLKES61US+mX+a6VHdVcwZhaAQFEJkbSQSUEgRhYSJnD2p5nhU93GTckYhKASFEBkciWwcCrFxOR6m8kKN1k0ov1qkfAmFoBAUQmRwJLJEITa2Pp+mopBqMgAJy4tAUAgKQSFEdkciO49CeH/7715mcTV8fAiLdcqXUAgKQSFEtkciO49C9D+Z30zmy/evZpX++NBWy914fqAQFIJCiBRHIjuPQtRv7ofJKORgDh+rtlquU5N/h0JQCAoRjui4jwIMQSF6DzriZBSSnI0e6zYs1rsr+EAhKASFyEU0nJMAQ1CIzkHdJlpol2/I6XYZfcSURUIhKASFkEJsiaxRiGSnPKe8U8nXbViOWDpFISgEhchH1O/X+Qv6hUIEW+c59aRw5uX60ikKQSEohEgv/xUQ2aAQuSIKucMfTZYPhaAQFEK6AZG/UIhY73lODa5EdbsQ8AcKQSEoRCai/s5jM02HQqTKs+rZCfcoABAUgkJQiHRE/V2nZpJHITL5PKtaJ9gqrGUAgkJQCAqRj+iegcgvFCJTj0Juqg5RWyAoBIWgEFKLgUhAIUrvAkMh/mEhLxAUgkJQiHxE/T6JrYagEBRSfT1BFIYgKEQsFIJCiP7QIRGFSPSCQq4TJOuHQlAICiH9cEhAIUV/ChSyUpiCoBAUgkJsRjik8Sik2GdkUIjf6BEEhQiHQlAI0WejeE4GhVy/xqCQVczyoRAUgkKI1OrPii/GRCEoxJJBUAgKQSH2Ix7LRBTy5Z1QiL5BUAgKQSFECvmTwDAEhYzqDYVYMAgKQSEoxH7EOCSikBGhkPEdtQyCQlAICiFSqP+QGYagEBQyPr/IejUoBIWgkPIRfUoMQ1AIChnfKmW90hGFoBAUYj2CIQMKGREKGZHfZsVO3qEQFIJCiDTa59vbopDxoRDjg5Dm1DmHQlAICiHS6dgIvEAVhaCQEW2yWjF451AICkEhNIVgSIVCvjIUcsn/yDo1Mfgid65/2LsX9cRxpAHDdd+KE2GrhIMD3szQEzoZ+pmQZw93+Z//7HlXEFGU7e+7giZtrBdJllEICkEhNSIWZSIKKQ+FlLVLeovicQwigkJQCAohunW/1d2fikJQSHlvSa3L6+ZTICgEhaCQm0d0rD/OoBAUUr4eaFZaHw+DfIZCUAgKIfLQu5aVUEhBvM3OIULy+8PnDAgKQSEohMhVu6xltSikXijkLdvMfzTjIJ+hEBSCQqYasTWkQSEFoRAPG1Pzf/Pjc/0FhaAQFOI4oqhFRRRSsf2yFbJL19LHw2r/9skPFIJCUIj7iEYtKgcUYvuv2K4m0yjnlWrv/FgfmwJ9oBAUgkL8RbTWokYUUq+Dwb/Cb/c1N34chiAFoRAUgkJ8RrTTolYopF7dkhWyr3Lyx3H/FuQzFIJCUAjRvHeGRBRiK7/XRT2WVV6Onyd/oBAUgkKIlrIzJKMQW4WkBaG3XCDNKPVCISgEhRA56IeW9IxC6nU++1iPSX/5AhgUgkJQyFwiWmlJ31CILfzEf3avsEunUcpDISgEhRDNbX9qg0JsT85/lhn2k15QPhYQBIWgEBQy54glmQcUYvt4dLsA8JYUmyAFoRAUgkLmHPFq3VcUYns3/sZUiKrGUcpDISgEhRDNdcdgQiG2W3F6pkIKDIJCUAgKIVrG4IBCbP8Zq8VPhaSD1A+FoBAUQuStrAU9o5BqtYu8yez0rI5B6odCUAgKIXLXu159tyQK4fDUlZ5RGqVCKASFoBD/Ef2qBY0opF55iceWJS3vIwgKQSGloRCiBfxI7VGI7exTkHnVaXknMQiFoBAU4iKiRgtCIca343a5e1P3gkJQCApBIcSjuijkhrNPjcyrbIAQFIJCUAjRTBWyQiG2/44XmVWdP4SgEBSCQoj8DxAohIdkKnS8yZ4QFIJCUAgRCkEhPCTzrmUdxSAUgkJQiJ+IDloQCrEek9slHlmW5KqhEBSCQojYF4JCjkvbnnrQsgZ7G6EQFIJCiFDIshSyX9pt5uhjPQaFoBAUQsSpZSik1YVtDIlaUhrEtHYeCkEhKIRok4pa+f+dikLcnJ7RLu60kF5s61AIClmAQohXsXi/ctZa0DcUUrO4rI0hweVUiBxQCApBIbSo94W+TvchyhGFWF8wcWlnlm3EuGYeCkEhKISo0aKSeExLalFIzUb99+WwsO/HIMYdUQgKQSG0rAcRg/ir1ZICCjFfouhlLq18zhTGeSgEhaAQolbLaicrKEEh5gPgw7L2Tb2IdXkeCkEhKIQoaFnNVB+ReUUh9rMDOSzqQd3R/luLQlAICqFlvbf8YaqbUyMKsd8Yot8W9RYZsa5DISgEhdDCXtaVpvqGjxcUcgO3RplJP1x+2BUKQSELUwhxYIg+T/P8dm1QyC2umCDzyOe2kDgXhaAQFELUTHZjyFpLGlGI/7f3+M3lVyMoCkEhc1EI0ahlxYnuq21RyC3+8FnmkctNMIfFKQSFoBDiIZkcJrkgkwWF+H9uxG3B5Uf9CYWgkPkohOiHltVP8mWnEYVUr9HF7E/duTxLJy1PISgEhRDbU+MUn5DRFxRyo+mzcTEKeRbbOkUhKGQ+CiHaq90h7vaz0t9sbkEPS1KIxFuqFYX85F8hKASFFN8YiHZa2GqK/+qAQurXOJ8MCZ3UyqFCdrpEhaAQFEJsDMlhelMhr4JC6hey78mQvaZ1P8xVIftFKgSFoBBiY4iupjcV8mL09/nuXyG+jmoxOA94e9/NUiFpwgpBISgkycURG0NymNpUiH4zugXFZSlk9LCfueDGm788JfLDnbb2ikJQyKwUQhR0cpMhBy0sGN2C0rIUIllLOngg6nbTXVkhvViWpqwQFIJCVIj+rji5yZCkZUWrW1BemEJWWlIKTlbrYtNe8bvRuJkK8a8QFIJCghD9bY2W9ntx0aMW1tu9vW1ZCglOrpfy1bq0uQtX+s9/cQNw/wpBISikFaLyIcXnUVRvWtpgppB2WQqRtdvrZaefVZgSOTr7w+/VuUJQCAo5f7MeUdTSUpCbt0taWBQzhfQLU8ioRW2Ds43LadMPtecJs5tr379CUAgKaYSo/Fbrck3mFy2tt1PIyoFCPMr19w6f4Y73Xd2BsLUnln+FoBAUUnzpEIU8oTWZRzXeTHvUgr4vTSGj0+slaUm5VEetqx93nTpWCApBIftLj5IkOmpxeZCb9rMWtzH0fV6aQuRdi0qDy8tjU3PPVBSbQpq8QlAICtEgRAU/bL1uDem0vNZyvep5aQrZa1nR5Z6hser7DYLVeoxnhaAQFHK4+MtHFLW8tdyut6zFvZoOt83SFCLJ4VaiqGWluruCGqN5HtcKQSEopLv4vRpEBz2j308CIdqb/m3i4hSy18Ie/e0ZWklpjZuV7l32rRAUgkJ2l98ribKe0eMUEJJsv1k5LE0hkrSw33l7570OlRcrR5PFJt8KQSEoJFx+ZRKt1D9Dfpf1jHrjb1a/OIWMWto43YNkgpdfd1t1rhAUgkIkXzwVSRSyGi7KGCyLJ6nWDy0pulWIgxcQtWLQ9ipCjT6ctVH3CkEhKORdjZ4oJCZDdB3EuHs9q958sB0Xp5BRPTFko6Wl+l+MZHD1e1cICkEhv5rdK4nJEOtzIHZbPatkf5rKZnEKkbWWlg9+TrPT/grUWhl8OOcKQSEopPnCkijRb3pe6SB2dVnPq7/BwyDj4hSyy1pc4wYhKVxj43brazkGhZSHQnwcqUyU9Mwexahwr2eWpGKtlhUdK8TBOt6jE4ToqeYQZHCaX9joJBSCQlBIsDr7kjhA1XRVpkt6boebPMbcOFaIA7pugottE2m4zvdi7WMxEoXUD4UU98Pq+QbiAFW76ZDwk57d5jZ/mDwsTiGjB7WGqNebCpGQb/pleEs6FYWgEBTyq7ImQzar/J+lTq7bY9azy8ON1h1SWJpC5KhnlBuDc0Kq/x8db2nyn7NORiEoBIXszX6SEBtUP9sMcr0OSS+oudkP/m1YmkJCqnC1GB5mp/0V//sf7beEoBAU4kkhQWHIl6J3deWQLuolpRueb78dPCvEwXai1N9253K66tfi9/Y7olBIhVBItSIMIaMXtRg4ZB/1ovJwy2WHNCxMIXLU83odbjlOt3J+jdortBhYKKRKKMT+sbnUClHhmkxBm1aqFh6zXlhz29/7uVmYQsL7zdC6+8Vk33LItzhG5+esU1MICkEhuy8+3UAU9dK2fZBadeusl7a5+SuHU+dbIQ52Nf9+sJNqhZmqlb2xilcjUUiFUEi94tcWaIl2SS8ubzqpUPeY9fLS4OAtO7H3rRAHM2ib4RazZb3F6w1Sb28QFIJCnCik0bNKfRCi0sWHgtKm+ypBkn6pQa5Re/4f4i7IPy50zZ/mpRA56gVtOmuD6MZIoakzNggKqR8KqUH2gvKmH/75vfJBaHmd9GvldX+hBEL/kPWLNY5Wqrbr5q59ks+e2rvmfp1UVYOBQvw/XJUuvVK6tfE8WchqNRsWznQ4CqkdCrH/TbJdr+66v7xXPt31/3evfBZaXh/65dK6aeWs2v4h6dc7eZwiSv+T/mWjf4XYLOTFfrBbsXuTi1vZECt0MZdoakAhKMSrQtq698peaHmFd61SvG+6IP+2p66532at0i8utu0W1NgrxP4Z78LiqjtjlL5PNyFqyNcnVrgrnAvsa45cKASFuL5XPgixQ/VL5e36ftV37dPf4eOp65v7dZk/HLyocdSafZ+bQmSvXyjH1d3wb7l6dx/rEtXg88WmK+TVY9TCkqAQFOJYIaPWLAnxQpla5fRZ1vIslv3NgZ/9K8R6P5HmeN/ctUH+rvB019zHfGOixq8Qq5V/Xmj78z5dj0JQiBeFGEyGBCHOULXPHiHWwH+enULkpHVK2xgf/q913CaDq8OA5tv1fXPXtU/hk1ZP3V2/elgnPbONoBAU4lohO63ZNyEYAkLqA7+fn0LkpI57szkVxaABhaAQ3wqRo1bsRQiGgJD661QPM1SIfKjb9jYMNegkKASFOFdIyFqvKARDQEj9H8PJUiEw5GTDUIOioBAU4l0hcqi/iY5gCAip+2M42CkEhpxsbq0GpQGFoBD/CpG11qsV4oFd922HyT079M1MIewNOc3n0x1kAgpBISgkJK1WIwRDvBeDs9e2FfRipRAYcpJqrb18FBSCQlwrREbOLasR7d51Ch3FrKPWKhopBIY05ucKG1zpKASF+FaInDi3jKxGXf+jjMtRKM9VIXLI6qi8n8/84DZMRSEoBIXImnPLyMEahEHpbaKrVK2BQljJS2/z+XBpMBi5UAgKcfeTrRdicwhbQurvUG2urxBW8tIwny9EGgxGLhSCQrx9VTi3jHYfrMZc4wnmh6srhM0hH2E+Lk/D9UYuFIJCPDOEc8vot8xqTH2GpDkrRPZpvkbdpVsiBIXUVwgK8c2QHIRcxrMyxzDp89yer6oQVvLSOKPPlgaDkQuFoBCfX5VRyGFMh2zHiY+w/TUVwqrML2FGLN8Gg5ELhaAQp/fKRshd7A7Jp8n/0H+5nkKYDsnNnB5hP9qOXCgEhfgS+3chMl3pLygOctPCWr/c69UUwnRIHOb0CHtjPHKhEBTiS+xZ/ieiU1IfxXEWA2yYvUJkt/a/I8T7TE8arUcuFIJCnIn9WYgcLcukXjw0JsMtV+UKYQotn4JYFI720zooBIX4U4iB2HshN+GQ3Mzmb9FcQSFMocVhTsLKjf3IhUJQiDexvwg5CYekJsznd/736grhkonjrD5ZHOxHLhSCQtxNHb8KuQiHxF58tfsS8XNlhXDJxHFWzwHlxmTkQiEoxKBTxU10RLt9muGeVPvx9bm+Qvw6JM30Atkn+1P5UAgKMVSI/b2yYBMd0T7633Jo0xj10vqlKMSArnkzzmvjS3wzHrlQCApx4JDyPy/R7pj8T4OYNH7oZb34V4h/ujpA6u6UrK94FIJC7BVi65CCuxvR+JEsCGK/I9VoveF1AQoxoGtejzN7IDmOhiMXCkEh/u+VWf5JRIePZECQmS5RZf8K8U/X2IR5TfTkY2s/cqEQFGLWfq1nl1v5pxGNx3e9SvlhH2Q67c4bh3LcB/8K8Q2R7Aqpu2MyQBUKQSEGCnF2r/xP9uxAQ2IYCAPwg8fIDLkGoQODEIPcveix6N1xt223dTT9vzeYmj/5d7OWCoDZcjq5gfC7XvE7bLxfu+u9Y9WI3w5KrmGwfpWWpQcYW6gffWPO67acAzTL/ax3frrwHT1X5+lZqOJjOgjq/HoDsTDaX4PHezfAWGdl3ttAAILKsSoysVsZoZIpeeaevgZLnaNTLT9CBUrrv4gu1+Jm2z+U3XIxAIKS/HpWtlcjARDUnHd3kZSdahnxc6wNBa1K5LTaUHsUu8zJFKpw2lG8AeDUIAAUreKZ0/S8fPQcxR71A7AxJB6ZOS065xiFTEu4ZiGX/FcZmf6jeAMAQGmq1YxkQWamWu7yPAFIQDX7tv3asPuf7cGBDAAAAMAgf+t7fNUVAAAAAAAAAAAAAAAAAAAAAAAAAAAAAAAAAAAAAAAAAAAAAAAAAAAAAAAAAAAAAAAAAAAAAAAAAAAAAAAAAAAAAAAAAAAAAAAAAAAAAAAAAAAAAAAAAAAAAAAAAAAAAAAAAAAAAAAAAAAAAAAAAAAAAAAAAAAAAAAAAAAAAAAAAAAAAAAAAAAAAAAAAAAAAAAAAAAAAAAAAAAAAAAAAAAAAAAAAAAAAAAAAAAAAAAAAAAAAAAAAAAAAAAAAAAAAAAAAAAAAAAAAAAAAAAAAAAAAAAAAAAAAAAAAAAAAAAAAAAAAAAAAAAAAAAAAAAAAAAAAAAAAAAAAAAAAAAAAAAAAAAAAAAAAAAAAAAAAAAAAAAAAAAAAAAAAAAAAAAAAAAAAAAAAAAAAAAAAAAAAAAAAAAAAAAAAAAAAAAAAAAAAAAAAAAAAAAAAAAAAAAAAAAAAAAAAAAAAAAAAAAAAAAAAAAAAAAAAAAAAAAAAAAAAAAAAAAAAAAAAAAAAAAAAAAAAAAAAAAAAAAAAAAAAAAAAAAAAAAAAAAAAAAAAAAAAAAAAAAAAAAAAAAAAAAAAAAAAAAAAAAAAAAAAAAAAAAAAAAAAAAAAAAAAAAAAAAAAAAAAAAAAAAAAAAAAAAAAAAAAAAAAAAAAAAAAAAAAAAAAAAAAAAAAAAAAAAAQNItiUftwSrPAAAAAElFTkSuQmCC;" vertex="1" parent="gtZmH0xc7X_VaX0TCZXS-15">
                    <mxGeometry x="13.030000000000001" y="60" width="153.95" height="90" as="geometry"/>
                </mxCell>
                <mxCell id="gtZmH0xc7X_VaX0TCZXS-16" value="" style="group" parent="1" vertex="1" connectable="0">
                    <mxGeometry x="530" y="341" width="180" height="159" as="geometry"/>
                </mxCell>
                <mxCell id="gtZmH0xc7X_VaX0TCZXS-9" value="" style="rounded=1;whiteSpace=wrap;html=1;" parent="gtZmH0xc7X_VaX0TCZXS-16" vertex="1">
                    <mxGeometry width="180" height="159" as="geometry"/>
                </mxCell>
                <mxCell id="gtZmH0xc7X_VaX0TCZXS-10" value="" style="image;sketch=0;aspect=fixed;html=1;points=[];align=center;fontSize=12;image=img/lib/mscae/Docker.svg;" parent="gtZmH0xc7X_VaX0TCZXS-16" vertex="1">
                    <mxGeometry x="12" y="10" width="50" height="41" as="geometry"/>
                </mxCell>
                <mxCell id="2" value="" style="shape=image;imageAspect=0;aspect=fixed;verticalLabelPosition=bottom;verticalAlign=top;image=data:image/svg+xml,PHN2ZyB4bWxuczp4bGluaz0iaHR0cDovL3d3dy53My5vcmcvMTk5OS94bGluayIgeG1sbnM9Imh0dHA6Ly93d3cudzMub3JnLzIwMDAvc3ZnIiB4bWw6c3BhY2U9InByZXNlcnZlIiBzdHlsZT0iZW5hYmxlLWJhY2tncm91bmQ6bmV3IDAgMCA4ODIuNyA2ODguNjsiIHZpZXdCb3g9IjAgMCA4ODIuNyA2ODguNiIgeT0iMHB4IiB4PSIwcHgiIGlkPSJMYXllcl8xIiB2ZXJzaW9uPSIxLjEiPgo8c3R5bGUgdHlwZT0idGV4dC9jc3MiPgoJLnN0MHtmaWxsOiNGRkZGRkY7fQoJLnN0MXtmaWxsOiMwMDk5MDA7fQo8L3N0eWxlPgo8cGF0aCBkPSJNNTA2LDY4OC42Yy0xMS4zLDAtMjEuNy00LjQtMjkuNC0xMS41Yy04LDcuMS0xOC4xLDExLTI4LjUsMTFoLTAuNWMtMTEuMi0wLjItMjIuMi01LTMwLjItMTMuMyYjMTA7JiM5O2MtOC4xLTguMi0xMi42LTE5LjMtMTIuNS0zMC40di00LjVsLTExLjgsMjMuOGwtNSwxMC4xYy00LjIsOC42LTEzLDE0LjEtMjIuNywxNC4xSDI2NC45Yy05LjEsMC0xNy41LTUtMjItMTIuOGwtNS4xLTkuMiYjMTA7JiM5O2wtMTMuNi0yMy45djNjMCwyMy44LTE5LjQsNDMuMi00My4yLDQzLjJjLTExLjYsMC0yMi40LTQuNS0zMC42LTEyLjdsLTYzLjktNjMuOVY2NDVjMCwyMy44LTE5LjQsNDMuMi00My4yLDQzLjJTMCw2NjguOSwwLDY0NVY1MDcmIzEwOyYjOTtjMC0xNy41LDEwLjUtMzMuMiwyNi43LTQwYzUuMy0yLjIsMTAuOC0zLjMsMTYuNS0zLjNjMTEuNiwwLDIyLjQsNC41LDMwLjYsMTIuN2w2NCw2NFY1MDdjMC0yMy44LDE5LjQtNDMuMiw0My4yLTQzLjImIzEwOyYjOTtzNDMuMiwxOS40LDQzLjIsNDMuMnYzLjdsMTMuNC0yNC4zbDQuOS05LjFjNC40LTguMSwxMi45LTEzLjMsMjIuMi0xMy4zaDEwNC43YzkuNywwLDE4LjQsNS41LDIyLjYsMTQuMWw1LDEwLjImIzEwOyYjOTtjMC4zLDAuNCwwLjQsMC45LDAuNiwxLjNsNy4zLDE3LjVjMC0xMSw0LjUtMjEuOSwxMi41LTMwYzguMS04LjMsMTkuMS0xMy4xLDMwLjItMTMuM2gwLjVjMTAuNSwwLDIwLjksNC4xLDI5LDExLjUmIzEwOyYjOTtjNy42LTYuOSwxNy44LTExLjEsMjguOS0xMS4xYzIzLjgsMCw0My4yLDE5LjQsNDMuMiw0My4ydjMzLjVsNjQtNjRjOC4xLTguMSwxOS4xLTEyLjcsMzAuNi0xMi43YzUuNywwLDExLjIsMS4xLDE2LjUsMy4zJiMxMDsmIzk7YzQuNSwxLjgsOC42LDQuNCwxMi4xLDcuNmM3LjktNy4xLDE4LTEwLjksMjguNy0xMC45YzExLjUsMCwyMi4zLDQuNCwzMC42LDEyLjZsMzguNiwzOC40bDM4LjYtMzguNGM4LjItOC4xLDE5LjEtMTIuNiwzMC42LTEyLjYmIzEwOyYjOTtjMTEuNiwwLDIyLjUsNC41LDMwLjYsMTIuOGMxNi45LDE2LjksMTYuOCw0NC40LTAuMSw2MS4ybC0zOC40LDM4LjJsMzguMiwzOC4xYzE2LjksMTYuOSwxNyw0NC4zLDAuMSw2MS4yJiMxMDsmIzk7Yy04LjEsOC4yLTE5LjEsMTIuOC0zMC42LDEyLjhjLTExLjYsMC0yMi40LTQuNS0zMC42LTEyLjdsLTM4LjQtMzguM0w3MzIsNjc1LjZjLTguMSw4LjEtMTksMTIuNi0zMC42LDEyLjYmIzEwOyYjOTtjLTEwLjQsMC0yMC42LTMuOS0yOC41LTEwLjdjLTcuNiw2LjktMTcuOCwxMS4yLTI5LDExLjJjLTIzLjgsMC00My4yLTE5LjQtNDMuMi00My4ydi0zMy41bC02NCw2NCYjMTA7JiM5O0M1MjguNSw2ODQuMSw1MTcuNyw2ODguNiw1MDYsNjg4LjZMNTA2LDY4OC42eiBNNjg3LjIsNTk4bDIxLjktMjEuOGwtMjEuOS0yMS44VjU5OHoiIGNsYXNzPSJzdDAiLz4KPHBhdGggZD0iTTE4MS4xLDY2My4xYy00LjcsMC05LjMtMS44LTEyLjgtNS4zTDYxLjMsNTUwLjd2OTQuM2MwLDEwLTguMSwxOC0xOCwxOHMtMTgtOC4xLTE4LTE4VjUwNyYjMTA7JiM5O2MwLTcuMyw0LjQtMTMuOSwxMS4yLTE2LjdjNi44LTIuOCwxNC41LTEuMywxOS43LDMuOWwxMDYuOSwxMDdWNTA3YzAtMTAsOC4xLTE4LDE4LTE4YzEwLDAsMTgsOC4xLDE4LDE4djEzNy45JiMxMDsmIzk7QzE5OS4yLDY1NC45LDE5MS4xLDY2My4xLDE4MS4xLDY2My4xIE0yNjQuOSw0ODkuMmwtNSw5LjNsLTM4LjQsNjkuOGwtNSw4LjhsNSw4LjhsMzguNCw2Ny42bDUuMiw5LjJoMTAwLjZsNS0xMC4ybDI4LjctNTcuOSYjMTA7JiM5O2wxMi45LTI2LjJoLTI5LjFsLTczLjQsMC4zYy05LjYtMC4yLTE4LjQsOC42LTE4LjQsMThjMCw5LjYsOC44LDE4LjIsMTguNCwxOGw0NC4zLTAuM2wtMTAuOCwyMS45aC01N0wyNTgsNTc2LjdsMjguNS01MS41aDYwLjYmIzEwOyYjOTtsMTQuMSwyOWgzNi40bC0yMi45LTU1bC01LTEwLjJIMjY0LjkgTTQ0OC4xLDQ4OC45Yy05LjUsMC4xLTE4LDguOC0xNy45LDE4LjN2NDcuMmgzNi4ydi00Ny4yQzQ2Ni41LDQ5Ny42LDQ1Ny43LDQ4OC43LDQ0OC4xLDQ4OC45JiMxMDsmIzk7IE01MDYuMSw2NjMuNGMtMTAsMC0xOC04LjEtMTgtMTh2LTEzOGMwLTEwLDguMS0xOCwxOC0xOGMxMCwwLDE4LDguMSwxOCwxOHY5NC4zbDEwNy0xMDdjNS4yLTUuMiwxMi45LTYuNywxOS43LTMuOSYjMTA7JiM5O3MxMS4yLDkuNCwxMS4yLDE2Ljd2MTM3LjljMCwxMC04LjEsMTgtMTgsMThjLTEwLDAtMTgtOC4xLTE4LTE4VjU1MUw1MTguOSw2NTguMUM1MTUuNSw2NjEuNSw1MTAuOSw2NjMuNCw1MDYuMSw2NjMuNCBNNzk2LjEsNTc2LjImIzEwOyYjOTtsNTYuMi01Ni4xYzcuMS03LjEsNy4xLTE4LjUsMC4xLTI1LjZjLTcuMS03LjEtMTguNS03LjEtMjUuNi0wLjFsLTU2LjMsNTYuMmwtNTYuMy01Ni4yYy03LjEtNy4xLTE4LjUtNy4xLTI1LjYsMC4xJiMxMDsmIzk7Yy03LjEsNy4xLTcuMSwxOC41LDAsMjUuNmw1Ni4yLDU2LjFsLTU2LjEsNTUuOWMtNy4xLDcuMS03LjEsMTguNS0wLjEsMjUuNmMzLjQsMy40LDgsNS40LDEyLjgsNS4zYzQuNiwwLDkuMi0xLjgsMTIuOC01LjNsNTYuMi01NiYjMTA7JiM5O2w1Ni4yLDU2YzMuNCwzLjQsOCw1LjMsMTIuOCw1LjNjNC42LDAsOS4zLTEuOCwxMi44LTUuM2M3LjEtNy4xLDcuMS0xOC41LTAuMS0yNS42TDc5Ni4xLDU3Ni4yeiBNNDQ4LjEsNjYyLjkmIzEwOyYjOTtjLTkuNS0wLjEtMTgtOC44LTE3LjktMTguM3YtNzUuN2gzNi4ydjc1LjdDNDY2LjUsNjU0LjIsNDU3LjcsNjYzLDQ0OC4xLDY2Mi45IiBjbGFzcz0ic3QxIi8+CjxwYXRoIGQ9Ik02MTQuMSw0ODguNGMtMTguNy0wLjItMzYuMy03LjUtNDkuNC0yMC43TDMzOC4yLDI0MS4zdjE3Ni40YzAsMzguOS0zMS43LDcwLjctNzAuNyw3MC43cy03MC43LTMxLjctNzAuNy03MC43JiMxMDsmIzk7VjcwLjdjMC0yOC43LDE3LjEtNTQuMyw0My42LTY1LjNjOC42LTMuNiwxNy43LTUuNCwyNy01LjRjMTguOSwwLDM2LjcsNy40LDUwLDIwLjdMNTQ0LDI0Ny4xVjcwLjdDNTQ0LDMxLjcsNTc1LjcsMCw2MTQuNiwwJiMxMDsmIzk7czcwLjcsMzEuNyw3MC43LDcwLjd2MzQ3LjFjMCwzOC45LTMxLjcsNzAuNy03MC43LDcwLjdINjE0LjFMNjE0LjEsNDg4LjR6IiBjbGFzcz0ic3QwIi8+CjxwYXRoIGQ9Ik02MTQuNiw0NjMuMmMtMTEuOCwwLTIzLjUtNC42LTMyLjItMTMuM0wzMTMuMSwxODAuNXYyMzcuMmMwLDI1LjItMjAuNCw0NS41LTQ1LjUsNDUuNXMtNDUuNS0yMC40LTQ1LjUtNDUuNSYjMTA7JiM5O3YtMzQ3YzAtMTguNSwxMS4xLTM1LDI4LjEtNDIuMXMzNi42LTMuMiw0OS42LDkuOWwyNjkuMywyNjkuNFY3MC43YzAtMjUuMiwyMC40LTQ1LjUsNDUuNS00NS41YzI1LjIsMCw0NS41LDIwLjQsNDUuNSw0NS41djM0Ny4xJiMxMDsmIzk7QzY2MC4xLDQ0Mi45LDYzOS44LDQ2My4yLDYxNC42LDQ2My4yIiBjbGFzcz0ic3QxIi8+Cjwvc3ZnPg==;" vertex="1" parent="gtZmH0xc7X_VaX0TCZXS-16">
                    <mxGeometry x="39" y="73" width="102" height="79.69" as="geometry"/>
                </mxCell>
                <mxCell id="gtZmH0xc7X_VaX0TCZXS-18" value="" style="group" parent="1" vertex="1" connectable="0">
                    <mxGeometry x="150" y="131" width="180" height="159" as="geometry"/>
                </mxCell>
                <mxCell id="gtZmH0xc7X_VaX0TCZXS-19" value="" style="rounded=1;whiteSpace=wrap;html=1;" parent="gtZmH0xc7X_VaX0TCZXS-18" vertex="1">
                    <mxGeometry width="180" height="159" as="geometry"/>
                </mxCell>
                <mxCell id="gtZmH0xc7X_VaX0TCZXS-21" value="" style="image;sketch=0;aspect=fixed;html=1;points=[];align=center;fontSize=12;image=img/lib/mscae/Docker.svg;" parent="gtZmH0xc7X_VaX0TCZXS-18" vertex="1">
                    <mxGeometry x="12" y="10" width="50" height="41" as="geometry"/>
                </mxCell>
                <mxCell id="gtZmH0xc7X_VaX0TCZXS-17" value="" style="image;aspect=fixed;html=1;points=[];align=center;fontSize=12;image=img/lib/azure2/databases/Azure_Database_PostgreSQL_Server.svg;" parent="gtZmH0xc7X_VaX0TCZXS-18" vertex="1">
                    <mxGeometry x="66" y="80" width="48" height="64" as="geometry"/>
                </mxCell>
                <mxCell id="gtZmH0xc7X_VaX0TCZXS-30" style="edgeStyle=entityRelationEdgeStyle;rounded=0;orthogonalLoop=1;jettySize=auto;html=1;exitX=0;exitY=0.5;exitDx=0;exitDy=0;" parent="1" source="gtZmH0xc7X_VaX0TCZXS-9" target="gtZmH0xc7X_VaX0TCZXS-19" edge="1">
                    <mxGeometry relative="1" as="geometry"/>
                </mxCell>
                <mxCell id="gtZmH0xc7X_VaX0TCZXS-31" style="edgeStyle=entityRelationEdgeStyle;rounded=0;orthogonalLoop=1;jettySize=auto;html=1;exitX=0;exitY=0.5;exitDx=0;exitDy=0;" parent="1" source="gtZmH0xc7X_VaX0TCZXS-9" target="gtZmH0xc7X_VaX0TCZXS-8" edge="1">
                    <mxGeometry relative="1" as="geometry"/>
                </mxCell>
                <mxCell id="gtZmH0xc7X_VaX0TCZXS-32" style="edgeStyle=entityRelationEdgeStyle;rounded=0;orthogonalLoop=1;jettySize=auto;html=1;exitX=0;exitY=0.5;exitDx=0;exitDy=0;entryX=1;entryY=0.5;entryDx=0;entryDy=0;" parent="1" source="gtZmH0xc7X_VaX0TCZXS-9" target="gtZmH0xc7X_VaX0TCZXS-11" edge="1">
                    <mxGeometry relative="1" as="geometry"/>
                </mxCell>
            </root>
        </mxGraphModel>
    </diagram>
</mxfile>